<?xml version="1.0" encoding="utf-8"?>
<!-- Generator: Adobe Illustrator 24.0.2, SVG Export Plug-In . SVG Version: 6.00 Build 0)  -->
<svg version="1.1" id="Lag_1" xmlns="http://www.w3.org/2000/svg" xmlns:xlink="http://www.w3.org/1999/xlink" x="0px" y="0px"
	 viewBox="0 0 181 181" style="enable-background:new 0 0 181 181;" xml:space="preserve">
<style type="text/css">
	.st45{fill:#F9EED7;}
	.st46{fill:#FFDB6A;}
	.st47{fill:#AA8F3D;}
	.st48{fill:#FFFFFF;}
	.st49{fill:#A3A8B2;}
	.st50{fill:#535D71;}
</style>
<path id="Path_129" class="st45" d="M180.6,90.44c0.04,49.76-40.28,90.13-90.04,90.16C40.8,180.64,0.44,140.32,0.4,90.56
	S40.68,0.44,90.44,0.4c0.04,0,0.08,0,0.13,0c49.71-0.02,90.02,40.26,90.04,89.96C180.6,90.39,180.6,90.41,180.6,90.44L180.6,90.44z"
	/>
<path id="Path_130" class="st46" d="M101.41,27.82v99.92H8.59c-2.21-4.86-3.99-9.9-5.3-15.08V0.4h70.69l1.29,1.29L101.41,27.82z"/>
<path id="Path_131" class="st47" d="M12.84,118.18v-86.4h79.01v86.4H12.84z"/>
<path id="Path_132" class="st47" d="M101.41,27.82H73.98V0.4L101.41,27.82z"/>
<g id="Group_7" transform="translate(18.4 57.805)">
	<path id="Path_133" class="st48" d="M14.6,22.85c0-6.23-13.32-4.32-13.32-14.15c0-6.18,5.31-8.3,10.08-8.3
		c2.45,0,7.89,0.58,7.89,3.32c0,0.96-0.66,2.86-2.16,2.86c-1.29,0-2.24-1.58-5.73-1.58c-2.99,0-4.69,1.2-4.69,3.2
		c0,5.15,13.32,3.36,13.32,14.11c0,5.93-4.15,9.01-9.88,9.01c-5.44,0-9.59-2.74-9.59-5.15c0-1.16,1.08-2.91,2.37-2.91
		c1.7,0,2.82,3.2,7.06,3.2C12.44,26.47,14.6,25.35,14.6,22.85L14.6,22.85z"/>
	<path id="Path_134" class="st48" d="M21.65,3.26c-0.04-0.14-0.07-0.27-0.08-0.41c0-1.33,1.95-2.24,3.4-2.24
		c0.91,0,1.62,0.29,1.83,1.08l6.35,22.49l6.31-22.49c0.21-0.79,0.91-1.08,1.83-1.08c1.45,0,3.4,0.96,3.4,2.24
		c-0.01,0.14-0.04,0.28-0.08,0.41l-7.97,26.1c-0.37,1.24-1.91,1.83-3.49,1.83s-3.07-0.58-3.49-1.83L21.65,3.26z"/>
	<path id="Path_135" class="st48" d="M56.97,5.34c-2.78,0-4.36,1.54-4.36,4.77v11.58c0,3.24,1.58,4.77,4.32,4.77
		c2.7,0,4.36-1.54,4.36-4.77v-2.45h-3.36c-1.08,0-1.66-1.04-1.66-2.12c0-1.04,0.58-2.12,1.66-2.12h7.05
		c0.92-0.02,1.68,0.71,1.7,1.63c0,0.04,0,0.07,0,0.11v4.94c0,6.93-4.27,9.5-9.75,9.5s-9.71-2.57-9.71-9.5V10.11
		c0-6.93,4.27-9.5,9.54-9.5c5.73,0,9.92,2.99,9.92,7.97c0,2.07-0.91,2.57-2.7,2.57c-1.45,0-2.66-0.41-2.7-1.7
		C61.15,7.5,60.49,5.34,56.97,5.34L56.97,5.34z"/>
</g>
<path id="Path_136" class="st49" d="M176.92,82.49v33.48c-2.23,7.54-5.44,14.76-9.55,21.46c-18.6,30.33-53.29,46.89-88.56,42.27
	V55.07h70.7L176.92,82.49z"/>
<path id="Path_137" class="st50" d="M167.37,86.45v50.99c-9.59,15.64-23.72,28-40.5,35.42h-38.5v-86.4L167.37,86.45z"/>
<path id="Path_138" class="st50" d="M176.92,82.5H149.5V55.07L176.92,82.5z"/>
<path id="Path_139" class="st48" d="M106.31,113.09h-8.34c-1.01-0.12-1.91,0.6-2.03,1.61c0,0.02,0,0.03-0.01,0.05v26.97
	c0,1.12,1.33,1.7,2.7,1.7c1.33,0,2.7-0.58,2.7-1.7v-9.63h4.65c5.48,0,9.75-2.61,9.75-9.42v-0.25
	C115.74,115.62,111.59,113.08,106.31,113.09L106.31,113.09z M110.34,123.09c0,3.24-1.66,4.77-4.36,4.77h-4.65v-10.04h4.65
	c2.7,0,4.36,1.54,4.36,4.77V123.09z"/>
<path id="Path_140" class="st48" d="M123.7,120.68c0-1.99,1.7-3.2,4.69-3.2c3.49,0,4.44,1.58,5.73,1.58c1.49,0,2.16-1.91,2.16-2.86
	c0-2.74-5.44-3.32-7.89-3.32c-4.77,0-10.08,2.12-10.08,8.3c0,9.84,13.32,7.93,13.32,14.15c0,2.49-2.16,3.61-4.65,3.61
	c-4.23,0-5.35-3.2-7.06-3.2c-1.29,0-2.36,1.74-2.36,2.91c0,2.41,4.15,5.14,9.58,5.14c5.73,0,9.88-3.07,9.88-9
	C137.02,124.04,123.7,125.83,123.7,120.68L123.7,120.68z"/>
<path id="Path_141" class="st48" d="M150.43,113.09h-7.35c-1.41,0-2.37,0.79-2.37,1.66v27.02c0,0.87,0.95,1.66,2.37,1.66h7.35
	c5.48,0,9.75-2.57,9.75-9.5v-11.34C160.18,115.66,155.9,113.09,150.43,113.09z M154.78,133.92c0,3.24-1.62,4.77-4.36,4.77h-4.32
	v-20.88h4.32c2.74,0,4.36,1.54,4.36,4.77V133.92z"/>
</svg>
