<?xml version="1.0" encoding="utf-8"?>
<!-- Generator: Adobe Illustrator 24.0.2, SVG Export Plug-In . SVG Version: 6.00 Build 0)  -->
<svg version="1.1" id="Lag_1" xmlns="http://www.w3.org/2000/svg" xmlns:xlink="http://www.w3.org/1999/xlink" x="0px" y="0px"
	 viewBox="0 0 181 181" style="enable-background:new 0 0 181 181;" xml:space="preserve">
<style type="text/css">
	.st30{fill:#535D71;}
	.st31{fill:#E8DBC4;}
	.st32{fill:#AA8F3D;}
	.st33{fill:#C9AB4E;}
	.st34{fill:#EDBB4C;}
	.st35{fill:#2A2D37;}
	.st36{fill:#F9EED7;}
	.st37{fill:#FFD15C;}
	.st38{fill:#A3A8B2;}
	.st39{fill:#2F323E;}
	.st40{fill:#FCF8F2;}
	.st41{fill:#5C5E70;}
	.st42{fill:#494B5B;}
	.st43{fill:#C69A6A;}
	.st44{fill:#B58657;}
</style>
<path id="Path_110" class="st30" d="M180.54,90.54c0.03,49.72-40.25,90.04-89.97,90.07c-26.28,0.01-51.26-11.46-68.37-31.41
	c-0.14-0.16-0.28-0.33-0.42-0.49c-4.36-5.14-8.13-10.76-11.23-16.75c0,0,0,0,0-0.01c-3.91-7.52-6.72-15.56-8.36-23.87
	c-0.57-2.87-1-5.78-1.28-8.74l0,0c-0.29-2.9-0.43-5.83-0.43-8.81c0-0.37,0-0.74,0.01-1.11C1.02,39.71,41.78-0.15,91.5,0.4
	c46.94,0.52,85.61,37.03,88.82,83.86C180.46,86.33,180.54,88.43,180.54,90.54z"/>
<path id="Path_111" class="st31" d="M179.98,100.61c-2.71,24.18-15.1,46.23-34.35,61.12l0,0c-2.96,2.3-6.07,4.42-9.3,6.33
	c-2.53,1.5-5.13,2.87-7.81,4.12c-8.44,3.93-17.43,6.53-26.67,7.68l0,0c-8.02,1.01-16.14,0.94-24.15-0.2
	c-2.34-0.33-4.65-0.75-6.92-1.26c-19.13-4.3-36.34-14.72-49-29.7c1.01-1.46,2.26-2.73,3.69-3.79l28.43-20.99
	c7.08-5.29,8.53-15.31,3.24-22.39c-5.25-7.02-15.17-8.52-22.25-3.35c-13.32,9.84-31.11-4.16-24.7-19.42
	c18.98-45.22,71.03-66.49,116.25-47.51C155.24,43.34,175.57,69.68,179.98,100.61z"/>
<path id="Path_112" class="st32" d="M113.49,50.49c0,8.83-7.15,15.99-15.99,16c-8.83,0-15.99-7.15-16-15.99s7.15-15.99,15.99-16
	c0,0,0.01,0,0.01,0c8.8-0.03,15.96,7.09,15.99,15.89C113.49,50.43,113.49,50.46,113.49,50.49z"/>
<path id="Path_113" class="st33" d="M113.49,50.49c0,3.47-1.13,6.86-3.22,9.63c-7.65,4.41-17.43,1.78-21.83-5.88
	c-3.2-5.56-2.77-12.49,1.09-17.61c7.66-4.41,17.43-1.77,21.84,5.89C112.75,44.95,113.49,47.7,113.49,50.49z"/>
<circle id="Ellipse_44" class="st34" cx="135.54" cy="74.75" r="15.98"/>
<path id="Path_266" class="st30" d="M151.53,99.55c8.83,0,15.99,7.16,15.99,15.99s-7.16,15.99-15.99,15.99
	c-8.83,0-15.98-7.16-15.98-15.99c0,0,0,0,0,0C135.54,106.71,142.7,99.55,151.53,99.55z"/>
<path id="Path_114" class="st35" d="M146.57,156.33c0,1.84-0.32,3.67-0.94,5.4l0,0c-2.96,2.3-6.07,4.42-9.3,6.33
	c-2.53,1.5-5.13,2.87-7.81,4.12c-8.75-1.14-14.93-9.16-13.79-17.91s9.16-14.93,17.91-13.79
	C140.61,141.51,146.57,148.3,146.57,156.33z"/>
<path id="Path_115" class="st36" d="M102.47,175.44c0,1.5-0.21,2.99-0.62,4.43c-10.37,1.3-20.88,0.81-31.08-1.46
	c-1.63-8.68,4.09-17.03,12.77-18.66s17.03,4.09,18.66,12.77C102.38,173.47,102.47,174.45,102.47,175.44L102.47,175.44z"/>
<path id="Path_116" class="st37" d="M151.52,74.75c0,3.47-1.13,6.86-3.22,9.63c-7.65,4.41-17.43,1.78-21.83-5.88
	c-3.2-5.56-2.77-12.49,1.09-17.61c7.66-4.41,17.43-1.77,21.84,5.89C150.79,69.2,151.52,71.95,151.52,74.75z"/>
<path id="Path_117" class="st38" d="M167.51,115.54c0,3.47-1.13,6.86-3.22,9.63c-7.65,4.41-17.43,1.78-21.83-5.88
	c-3.2-5.56-2.77-12.49,1.09-17.61c7.66-4.41,17.43-1.77,21.84,5.89C166.77,109.99,167.51,112.74,167.51,115.54z"/>
<path id="Path_118" class="st39" d="M146.57,156.33c0,1.84-0.32,3.67-0.94,5.4c-2.96,2.3-6.07,4.42-9.3,6.33
	c-0.32,0.02-0.64,0.03-0.97,0.03c-8.83,0-15.99-7.16-15.98-15.99c0-3.47,1.13-6.85,3.22-9.62c7.66-4.41,17.43-1.77,21.84,5.89
	C145.83,150.78,146.57,153.53,146.57,156.33L146.57,156.33z"/>
<g id="Group_6" transform="translate(8.57 8.754)">
	<path id="Path_119" class="st40" d="M93.89,166.68c0,1.5-0.21,2.99-0.63,4.43c-8.02,1.01-16.14,0.94-24.15-0.2
		c-3.5-5.61-3.18-12.8,0.8-18.08c7.66-4.41,17.43-1.77,21.84,5.89C93.16,161.14,93.89,163.88,93.89,166.68z"/>
	<path id="Path_120" class="st40" d="M33.29,74.73c-4.83,2.87-10.52,3.95-16.07,3.07C-4.72,74.14-2.27,42.01,8.4,30.25
		c1.76-2.04,3.08-4.42,3.9-6.98l0,0l0.15-0.44c0.16-0.52,0.32-1.04,0.46-1.58c0.47-1.79,0.82-3.6,1.05-5.44
		c0.38-3.08,0.54-6.18,0.49-9.28c-0.05-3.27,2.57-5.96,5.84-6.01c1.92-0.03,3.73,0.88,4.86,2.42
		c16.48,22.57,21.39,39.86,20.05,52.14v0.01C44.15,64.63,39.36,71.14,33.29,74.73z"/>
</g>
<path id="Path_121" class="st36" d="M41.86,83.49c-4.83,2.87-10.52,3.95-16.07,3.07C3.85,82.89,6.3,50.76,16.97,39.01
	c1.76-2.04,3.08-4.42,3.9-6.98C18.44,40.81,10.95,75.57,41.86,83.49z"/>
<path id="Path_122" class="st37" d="M53.76,63.84c1.54-14.12-5.17-34.86-28.23-62.62c-0.69-0.84-1.93-0.95-2.77-0.26
	c-0.52,0.43-0.78,1.09-0.7,1.76c0.76,5.75,1.45,14.23,0.44,21.96c-0.07,0.52-0.14,1.04-0.23,1.56c-0.01,0.09-0.03,0.17-0.04,0.26
	c-0.09,0.53-0.19,1.06-0.3,1.58l-0.03,0.17c-0.11,0.52-0.23,1.03-0.37,1.54c-0.02,0.07-0.04,0.14-0.06,0.21
	c-0.14,0.53-0.29,1.05-0.46,1.56v0.01l0,0c-0.81,2.73-2.19,5.27-4.05,7.43l0,0c1.32,3.41,1.31,7.19-0.05,10.58
	c-0.37,0.91-0.77,1.83-1.2,2.74c0,0,11.29-3.92,12.19-14.5c0,0,8.68,14.98,4.04,29.88c0,0,11.08-11.04,6.44-30.93
	C38.38,36.78,51.65,45.05,53.76,63.84z"/>
<path id="Path_123" class="st41" d="M47.49,88.92H15.52c-3.15,0-5.7-2.55-5.7-5.7l0,0c0-3.15,2.55-5.7,5.7-5.7h31.97
	c3.15,0,5.7,2.55,5.7,5.7l0,0C53.19,86.37,50.64,88.92,47.49,88.92z"/>
<path id="Path_124" class="st42" d="M19.01,83.23L19.01,83.23c0-3.15,2.55-5.7,5.7-5.7h-9.19c-3.15,0-5.7,2.55-5.7,5.7l0,0
	c0,3.15,2.55,5.7,5.7,5.7h9.19C21.56,88.93,19.01,86.37,19.01,83.23z"/>
<path id="Path_125" class="st41" d="M47.49,100.31H15.52c-3.15,0-5.7-2.55-5.7-5.7l0,0l0,0c0-3.15,2.55-5.7,5.7-5.7h31.97
	c3.15,0,5.7,2.55,5.7,5.7l0,0C53.19,97.76,50.64,100.31,47.49,100.31L47.49,100.31z"/>
<path id="Path_126" class="st42" d="M19.01,94.62L19.01,94.62c0-3.15,2.55-5.7,5.7-5.7h-9.19c-3.15,0-5.7,2.55-5.7,5.7l0,0
	c0,3.15,2.55,5.7,5.7,5.7c0,0,0,0,0,0h9.19C21.56,100.32,19.01,97.77,19.01,94.62z"/>
<path id="Path_127" class="st43" d="M52.16,172.02c-17.89-8.44-32.51-22.52-41.62-40.07c0.61-8.27,1.64-16.49,3.09-24.65
	c0.41-2.33,0.86-4.66,1.34-6.98h33.07c0.48,2.32,0.93,4.65,1.34,6.98C53.16,128.66,54.1,150.42,52.16,172.02z"/>
<path id="Path_128" class="st44" d="M49.38,107.3H34.96c-5.26,0-9.71,3.88-10.44,9.08c-1.51,10.87-2.29,21.84-2.33,32.81
	c-0.14-0.17-0.28-0.33-0.42-0.49c-4.36-5.14-8.13-10.76-11.23-16.74c0.61-8.27,1.64-16.5,3.09-24.66l0,0
	c0.03-0.19,0.07-0.38,0.1-0.57c0.07-0.5,0.18-1,0.28-1.49c0.11-0.54,0.2-1.08,0.3-1.62c0.21-1.1,0.43-2.2,0.66-3.3h33.08
	C48.52,102.64,48.97,104.97,49.38,107.3z"/>
</svg>
