<?xml version="1.0" encoding="utf-8"?>
<!-- Generator: Adobe Illustrator 24.0.2, SVG Export Plug-In . SVG Version: 6.00 Build 0)  -->
<svg version="1.1" id="Lag_1" xmlns="http://www.w3.org/2000/svg" xmlns:xlink="http://www.w3.org/1999/xlink" x="0px" y="0px"
	 viewBox="0 0 1050 1100" style="enable-background:new 0 0 1050 1100;" xml:space="preserve">
<style type="text/css">
	.st80{fill:#22242C;}
	.st81{fill:#252830;}
	.st82{fill:#242830;}
	.st83{fill:#535D71;}
	.st84{fill:#CA9D62;}
	.st85{fill:url(#Path_4_1_);}
	.st86{fill:#383F4D;}
	.st87{fill:#A3A8B2;}
	.st88{fill:#FFDB6A;}
	.st89{fill:url(#Path_9_1_);}
</style>
<g id="_187831" transform="translate(34.791 41.992)">
	<circle id="Ellipse_1" class="st80" cx="507.49" cy="333.46" r="68.6"/>
	<path id="Path_13" class="st80" d="M576.09,333.49c0,37.89-30.72,68.61-68.61,68.61s-68.61-30.72-68.61-68.61"/>
	<circle id="Ellipse_2" class="st80" cx="507.49" cy="185.99" r="42.53"/>
	<path id="Path_14" class="st80" d="M507.49,143.46c23.5,0,42.54,19.05,42.54,42.55c0,23.49-19.05,42.53-42.54,42.54"/>
	<circle id="Ellipse_3" class="st80" cx="507.49" cy="13.79" r="13.03"/>
	<circle id="Ellipse_4" class="st80" cx="507.49" cy="55.63" r="13.03"/>
	<circle id="Ellipse_5" class="st80" cx="507.49" cy="97.49" r="13.03"/>
	<circle id="Ellipse_7" class="st81" cx="507.49" cy="846.61" r="42.55"/>
	<path id="Path_16" class="st81" d="M507.49,889.21c-23.5,0-42.55-19.05-42.55-42.55s19.05-42.55,42.55-42.55l0,0"/>
	<circle id="Ellipse_8" class="st80" cx="507.49" cy="1018.84" r="13.03"/>
	<circle id="Ellipse_9" class="st80" cx="507.49" cy="976.95" r="13.03"/>
	<circle id="Ellipse_10" class="st80" cx="507.49" cy="935.22" r="13.03"/>
	<path id="Path_35" class="st80" d="M568.15,387.06"/>
	<path id="Path_17" class="st80" d="M588.24,435.57c-26.79-26.79-26.79-70.23,0-97.02c0,0,0,0,0,0"/>
	<circle id="Ellipse_12" class="st80" cx="741.07" cy="282.71" r="42.53"/>
	<path id="Path_18" class="st81" d="M771.13,252.69c16.61,16.61,16.61,43.54,0,60.14c-16.61,16.61-43.54,16.61-60.14,0"/>
	<circle id="Ellipse_13" class="st80" cx="862.9" cy="160.99" r="13.03"/>
	<circle id="Ellipse_14" class="st80" cx="833.23" cy="190.58" r="13.03"/>
	<circle id="Ellipse_15" class="st80" cx="803.63" cy="220.19" r="13.03"/>
	<circle id="Ellipse_17" class="st80" cx="273.87" cy="749.92" r="42.55"/>
	<path id="Path_20" class="st81" d="M243.82,780c-16.57-16.66-16.49-43.59,0.17-60.16c16.59-16.5,43.4-16.5,59.99,0"/>
	<circle id="Ellipse_18" class="st80" cx="152.13" cy="871.74" r="13.02"/>
	<path id="Path_21" class="st80" d="M172.53,832.88c5.1-5.08,13.35-5.06,18.42,0.04c5.08,5.1,5.06,13.35-0.04,18.42
		c-5.09,5.07-13.32,5.06-18.4-0.02C167.43,846.23,167.43,837.97,172.53,832.88z"/>
	<circle id="Ellipse_19" class="st80" cx="211.36" cy="812.5" r="13.02"/>
	<path id="Path_37" class="st80" d="M621.7,516.34"/>
	<path id="Path_22" class="st80" d="M690.3,584.96c-37.89,0-68.61-30.73-68.6-68.62s30.73-68.61,68.62-68.6l0,0"/>
	<path id="Path_36" class="st80" d="M837.77,473.8c23.49,0,42.53,19.04,42.53,42.53c0,23.49-19.04,42.53-42.53,42.53
		s-42.53-19.04-42.53-42.53c0,0,0,0,0,0C795.24,492.85,814.28,473.8,837.77,473.8z"/>
	<path id="Path_23" class="st80" d="M880.34,516.35c0.01,23.49-19.02,42.54-42.51,42.55c-23.49,0.01-42.54-19.02-42.55-42.51
		c0-0.01,0-0.03,0-0.04"/>
	<circle id="Ellipse_22" class="st80" cx="1010" cy="516.34" r="13.05"/>
	<circle id="Ellipse_23" class="st80" cx="968.11" cy="516.32" r="13.03"/>
	<circle id="Ellipse_24" class="st80" cx="926.38" cy="516.34" r="13.03"/>
	<path id="Path_24" class="st80" d="M324.65,447.75c37.88,0,68.59,30.71,68.59,68.59s-30.71,68.59-68.59,68.59l0,0"/>
	<circle id="Ellipse_26" class="st80" cx="177.14" cy="516.35" r="42.55"/>
	<path id="Path_25" class="st80" d="M134.59,516.35c0-23.5,19.05-42.55,42.55-42.55c23.5,0,42.55,19.05,42.55,42.55c0,0,0,0,0,0.01"
		/>
	<circle id="Ellipse_27" class="st80" cx="4.94" cy="516.35" r="13.03"/>
	<path id="Path_26" class="st80" d="M46.76,503.32c7.2,0,13.03,5.84,13.03,13.03s-5.84,13.03-13.03,13.03s-13.03-5.84-13.03-13.03
		C33.74,509.16,39.57,503.33,46.76,503.32z"/>
	<circle id="Ellipse_28" class="st80" cx="88.65" cy="516.34" r="13.02"/>
	<circle id="Ellipse_30" class="st82" cx="741.07" cy="749.94" r="42.53"/>
	<path id="Path_28" class="st80" d="M771.1,780c-16.61,16.6-43.53,16.6-60.14-0.01s-16.6-43.53,0.01-60.14"/>
	<path id="Path_29" class="st80" d="M853.62,880.93c-5.1-5.08-5.12-13.34-0.04-18.44c5.08-5.1,13.34-5.12,18.44-0.04
		c5.1,5.08,5.12,13.34,0.04,18.44c-0.01,0.01-0.03,0.03-0.04,0.04c-5.07,5.08-13.29,5.09-18.37,0.03
		C853.64,880.94,853.63,880.93,853.62,880.93z"/>
	<path id="Path_30" class="st80" d="M824.01,851.33c-5.12-5.07-5.16-13.33-0.09-18.46c5.07-5.12,13.33-5.16,18.46-0.09
		s5.16,13.33,0.09,18.46c-0.02,0.02-0.05,0.05-0.07,0.07C837.31,856.36,829.1,856.37,824.01,851.33z"/>
	<path id="Path_31" class="st80" d="M794.42,821.73c-5.09-5.09-5.1-13.35-0.01-18.44c5.09-5.09,13.35-5.1,18.44-0.01
		c5.09,5.09,5.1,13.35,0.01,18.44c0,0-0.01,0.01-0.01,0.01C807.76,826.81,799.51,826.81,794.42,821.73z"/>
	<path id="Path_44" class="st81" d="M273.87,240.16c23.5,0,42.55,19.05,42.55,42.55c0,23.5-19.05,42.55-42.55,42.55
		c-23.5,0-42.55-19.05-42.55-42.55c0,0,0,0,0,0C231.32,259.21,250.37,240.16,273.87,240.16z"/>
	<path id="Path_33" class="st80" d="M243.79,252.69c16.57-16.66,43.5-16.73,60.16-0.17c16.66,16.57,16.73,43.5,0.17,60.16
		c-0.06,0.06-0.11,0.11-0.17,0.17"/>
	<circle id="Ellipse_33" class="st80" cx="152.12" cy="161" r="13.02"/>
	<path id="Path_34" class="st80" d="M190.93,181.4c5.07,5.1,5.05,13.34-0.05,18.41s-13.34,5.05-18.41-0.05
		c-5.06-5.09-5.05-13.31,0.02-18.38C177.58,176.29,185.84,176.3,190.93,181.4z"/>
	<circle id="Ellipse_34" class="st80" cx="211.36" cy="220.2" r="13.02"/>
	<circle id="Ellipse_35" class="st80" cx="952.9" cy="70.99" r="13.03"/>
	<circle id="Ellipse_36" class="st80" cx="923.23" cy="100.58" r="13.03"/>
	<circle id="Ellipse_37" class="st80" cx="893.63" cy="130.2" r="13.03"/>
	<path id="Path_38" class="st80" d="M943.62,965.93c-5.1-5.08-5.12-13.34-0.04-18.44c5.08-5.1,13.34-5.12,18.44-0.04
		c5.1,5.08,5.12,13.34,0.04,18.44c-0.01,0.01-0.03,0.03-0.04,0.04c-5.07,5.08-13.29,5.09-18.37,0.03
		C943.64,965.94,943.63,965.93,943.62,965.93z"/>
	<path id="Path_39" class="st80" d="M914.01,936.33c-5.12-5.07-5.16-13.33-0.09-18.46c5.07-5.12,13.33-5.16,18.46-0.09
		s5.16,13.33,0.09,18.46c-0.02,0.02-0.05,0.05-0.07,0.07C927.31,941.36,919.1,941.37,914.01,936.33z"/>
	<path id="Path_40" class="st80" d="M884.42,906.73c-5.09-5.09-5.1-13.35-0.01-18.44c5.09-5.09,13.35-5.1,18.44-0.01
		c5.09,5.09,5.1,13.35,0.01,18.44c0,0-0.01,0.01-0.01,0.01C897.76,911.81,889.51,911.81,884.42,906.73z"/>
	<circle id="Ellipse_38" class="st80" cx="62.13" cy="956.74" r="13.02"/>
	<path id="Path_41" class="st80" d="M82.53,917.88c5.1-5.08,13.35-5.06,18.42,0.04c5.08,5.1,5.06,13.35-0.04,18.42
		c-5.09,5.07-13.32,5.06-18.4-0.02C77.43,931.23,77.43,922.97,82.53,917.88z"/>
	<circle id="Ellipse_39" class="st80" cx="121.36" cy="897.5" r="13.02"/>
	<path id="Path_43" class="st80" d="M794.42,821.73c-5.09-5.09-5.1-13.35-0.01-18.44c5.09-5.09,13.35-5.1,18.44-0.01
		c5.09,5.09,5.1,13.35,0.01,18.44c0,0-0.01,0.01-0.01,0.01C807.76,826.81,799.51,826.81,794.42,821.73z"/>
	<circle id="Ellipse_43" class="st80" cx="507.49" cy="-28.21" r="13.03"/>
</g>
<g id="_187861" transform="translate(191.791 185.086)">
	<path id="Path_1" class="st83" d="M330.42,599.75c0,0-28.67-137.91-161.19-120C36.68,497.66-8.09,628.41-8.09,628.41
		s53.73-73.44,159.41-53.74c105.68,19.7,91.35-17.92,121.79-14.33S330.42,599.75,330.42,599.75z"/>
	<path id="Path_2" class="st84" d="M316.99,529c0,0-36.71-68.05-140.59-90.45c-82.82-17.85-121.79-107.48-71.65-197.02
		c0,0,5.37,66.27,84.19,69.86c78.81,3.59,96.18,89.46,109.24,130.74C320.57,512.88,316.99,529,316.99,529z"/>
	<path id="Path_3" class="st84" d="M176.57,460.76c0,0-36.57-9.13-72.3-37.4c-35.74-28.25-63.18,8.31-92.25-14.95
		c0,0,17.32,62.96,77.31,61.49C157.46,468.23,176.57,460.76,176.57,460.76z"/>
	
		<linearGradient id="Path_4_1_" gradientUnits="userSpaceOnUse" x1="-192.2728" y1="916.1348" x2="-192.2728" y2="915.1348" gradientTransform="matrix(119.3343 0 0 -585.677 23236.0703 536606.25)">
		<stop  offset="0" style="stop-color:#535D71"/>
		<stop  offset="0.541" style="stop-color:#3E4554"/>
		<stop  offset="1" style="stop-color:#525C70"/>
	</linearGradient>
	<path id="Path_4" class="st85" d="M334.9,545.12c0,0-1.8-151.35-80.61-236.42c-59.44-64.17,7.17-184.48,96.72-261.5v585.68
		L334.9,545.12z"/>
	<path id="Path_5" class="st86" d="M180.59,283.63c0,0-87.75-34.03-23.27-104.17c0,0-4.79,20.31,19.1,38.21
		S180.59,283.63,180.59,283.63z"/>
	<path id="Path_6" class="st87" d="M371.39,599.75c0,0,28.67-137.91,161.19-120c132.55,17.91,177.32,148.66,177.32,148.66
		s-53.73-73.44-159.41-53.74c-105.68,19.7-91.35-17.92-121.79-14.33C398.27,563.94,371.39,599.75,371.39,599.75z"/>
	<path id="Path_7" class="st88" d="M384.82,529c0,0,36.71-68.05,140.59-90.45c82.82-17.85,121.79-107.48,71.67-197.02
		c0,0-5.39,66.27-84.2,69.86c-78.82,3.59-96.19,89.46-109.26,130.74C381.23,512.88,384.82,529,384.82,529z"/>
	<path id="Path_8" class="st88" d="M525.24,460.76c0,0,36.56-9.13,72.32-37.4c35.72-28.25,63.16,8.31,92.24-14.95
		c0,0-17.33,62.96-77.3,61.49C544.35,468.23,525.24,460.76,525.24,460.76z"/>
	
		<linearGradient id="Path_9_1_" gradientUnits="userSpaceOnUse" x1="-192.2728" y1="916.1348" x2="-192.2728" y2="915.1348" gradientTransform="matrix(119.3343 0 0 -585.677 23355.2012 536606.25)">
		<stop  offset="0" style="stop-color:#A3A8B2"/>
		<stop  offset="0.491" style="stop-color:#71747B"/>
		<stop  offset="1" style="stop-color:#A2A6B0"/>
	</linearGradient>
	<path id="Path_9" class="st89" d="M366.91,545.12c0,0,1.78-151.35,80.61-236.42c59.44-64.17-7.17-184.48-96.72-261.5v585.68
		L366.91,545.12z"/>
	<path id="Path_10" class="st83" d="M521.21,283.63c0,0,87.75-34.03,23.28-104.17c0,0,4.79,20.31-19.12,38.21
		C501.5,235.58,521.21,283.63,521.21,283.63z"/>
	<path id="Path_11" class="st84" d="M305.27,604.81c0,0-35.52,87.18-104.56,21.51c0,0,20.22,5.14,38.54-18.47
		C257.56,584.28,305.27,604.81,305.27,604.81z"/>
	<path id="Path_12" class="st88" d="M397.22,604.76c0,0,35.52,87.17,104.56,21.51c0,0-20.22,5.14-38.54-18.47
		C444.94,584.23,397.22,604.76,397.22,604.76z"/>
</g>
<circle id="Ellipse_40" class="st80" cx="4.92" cy="1085.73" r="13.02"/>
<path id="Path_42" class="st80" d="M25.32,1046.87c5.1-5.08,13.35-5.06,18.42,0.04c5.08,5.1,5.06,13.35-0.04,18.42
	c-5.09,5.07-13.32,5.06-18.4-0.02C20.22,1060.22,20.22,1051.96,25.32,1046.87z"/>
<circle id="Ellipse_41" class="st80" cx="64.15" cy="1026.49" r="13.02"/>
</svg>
