<?xml version="1.0" encoding="utf-8"?>
<!-- Generator: Adobe Illustrator 24.0.2, SVG Export Plug-In . SVG Version: 6.00 Build 0)  -->
<svg version="1.1" id="Lag_1" xmlns="http://www.w3.org/2000/svg" xmlns:xlink="http://www.w3.org/1999/xlink" x="0px" y="0px"
	 viewBox="0 0 181 181" style="enable-background:new 0 0 181 181;" xml:space="preserve">
<style type="text/css">
	.st70{fill:#C9AB4E;}
	.st71{fill:#2F323E;}
	.st72{fill:#A3A8B2;}
	.st73{fill:#535D71;}
	.st74{fill:#D5F1FE;}
	.st75{fill:#FFDB6A;}
	.st76{fill:#CA9D62;}
	.st77{fill:#2A2D37;}
	.st78{fill:#AA8F3D;}
	.st79{fill:#FFF5D6;}
</style>
<path id="Path_206" class="st70" d="M90.49,8.2C42.9,8.2,4.33,46.77,4.32,94.36c0,20.93,7.62,41.15,21.44,56.88l103.32,20.19
	c42.55-21.32,59.76-73.1,38.44-115.65C152.92,26.62,123.1,8.2,90.49,8.2z"/>
<path id="Path_207" class="st71" d="M116.03,0.46H38.95c-7.49,0.01-13.56,6.08-13.56,13.56v136.79c2.59,2.98,5.38,5.78,8.35,8.39
	l87.37,15.73c2.89-1.1,5.73-2.35,8.48-3.76V14.03C129.58,6.54,123.52,0.47,116.03,0.46z"/>
<path id="Path_208" class="st71" d="M51.48,8.88c-2.19-1.48-2.77-4.46-1.29-6.66c0.53-0.79,1.29-1.4,2.18-1.76H38.95
	c-7.49,0.01-13.56,6.08-13.56,13.56v136.79c2.59,2.98,5.38,5.78,8.35,8.39l17.75,3.2L51.48,8.88L51.48,8.88z"/>
<path id="Path_209" class="st72" d="M116.03,8.32h-11.46c-1.08,0-1.96,0.88-1.96,1.95v0c-0.01,2.6-2.11,4.7-4.71,4.71H57.07
	c-2.6-0.01-4.7-2.11-4.71-4.71c0-1.08-0.88-1.95-1.96-1.95l0,0H38.95c-3.15,0-5.71,2.56-5.71,5.71v144.73
	c24.18,21.49,58.35,27.64,88.5,15.93V14.03C121.74,10.87,119.18,8.32,116.03,8.32z"/>
<path id="Path_210" class="st73" d="M50.38,11.29c0-0.99,0.24-1.98,0.7-2.86c-0.22-0.08-0.44-0.12-0.67-0.12H38.95
	c-3.15,0-5.71,2.56-5.71,5.71v144.73c5.21,4.64,10.97,8.63,17.14,11.89L50.38,11.29L50.38,11.29z"/>
<path id="Path_211" class="st74" d="M153.05,30.19H52.93c-1.41,0-2.55,1.14-2.55,2.55v22.87c0,1.41,1.14,2.55,2.55,2.55h100.12
	c1.41,0,2.55-1.14,2.55-2.55V32.74C155.6,31.33,154.46,30.19,153.05,30.19z"/>
<path id="Path_212" class="st73" d="M153.05,69.55h-42.21c-1.41,0-2.55,1.14-2.55,2.55v46.62c0,1.41,1.14,2.55,2.55,2.55h42.21
	c1.41,0,2.55-1.14,2.55-2.55V72.1C155.6,70.69,154.46,69.55,153.05,69.55L153.05,69.55z"/>
<path id="Path_213" class="st71" d="M95.14,69.55H52.93c-1.41,0-2.55,1.14-2.55,2.55v20.76c0,1.41,1.14,2.55,2.55,2.55c0,0,0,0,0,0
	h42.21c1.41,0,2.55-1.14,2.55-2.55V72.1C97.69,70.69,96.55,69.55,95.14,69.55L95.14,69.55z"/>
<path id="Path_214" class="st75" d="M95.14,105.92H52.93c-1.41,0-2.55,1.14-2.55,2.55v46.62c0,1.41,1.14,2.55,2.55,2.55h42.21
	c1.41,0,2.55-1.14,2.55-2.55v-46.62C97.69,107.07,96.55,105.92,95.14,105.92z"/>
<path id="Path_215" class="st74" d="M153.05,131.78h-42.21c-1.41,0-2.55,1.14-2.55,2.55v20.76c0,1.41,1.14,2.55,2.55,2.55h42.21
	c1.41,0,2.55-1.14,2.55-2.55v-20.76C155.6,132.92,154.46,131.78,153.05,131.78z"/>
<path id="Path_216" class="st76" d="M63.74,55.61V32.74c0-1.41,1.14-2.55,2.55-2.55H52.93c-1.41,0-2.55,1.14-2.55,2.55v22.87
	c0,1.41,1.14,2.54,2.55,2.54h13.37C64.89,58.16,63.75,57.02,63.74,55.61C63.75,55.61,63.75,55.61,63.74,55.61L63.74,55.61z"/>
<path id="Path_217" class="st71" d="M121.65,118.72V72.1c0-1.41,1.14-2.55,2.55-2.55h-13.36c-1.41,0-2.55,1.14-2.55,2.55v46.62
	c0,1.41,1.14,2.55,2.55,2.55h13.36C122.79,121.27,121.65,120.13,121.65,118.72z"/>
<path id="Path_218" class="st77" d="M63.74,92.86V72.1c0-1.41,1.14-2.55,2.55-2.55H52.93c-1.41,0-2.55,1.14-2.55,2.55v20.76
	c0,1.41,1.14,2.55,2.55,2.55c0,0,0,0,0,0h13.37C64.89,95.41,63.75,94.27,63.74,92.86C63.74,92.87,63.74,92.87,63.74,92.86z"/>
<path id="Path_219" class="st70" d="M63.74,155.09v-46.62c0-1.41,1.14-2.55,2.55-2.55H52.93c-1.41,0-2.55,1.14-2.55,2.55v46.62
	c0,1.41,1.14,2.55,2.55,2.55h13.37C64.89,157.64,63.75,156.5,63.74,155.09C63.74,155.1,63.74,155.1,63.74,155.09z"/>
<path id="Path_220" class="st78" d="M121.65,155.09v-20.76c0-1.41,1.14-2.55,2.55-2.55h-13.36c-1.41,0-2.55,1.14-2.55,2.55v20.76
	c0,1.41,1.14,2.55,2.55,2.55h13.36C122.79,157.64,121.65,156.5,121.65,155.09z"/>
<path id="Path_221" class="st72" d="M155.6,116.91l-19.66-21.5l19.66-21.5V72.1c0-1.41-1.14-2.55-2.55-2.55h-1.44l-19.66,21.5
	l-19.66-21.5h-1.44c-1.41,0-2.55,1.14-2.55,2.55v1.81l19.66,21.5l-19.67,21.5v1.82c0,1.41,1.14,2.55,2.55,2.55h1.44l19.66-21.5
	l19.66,21.5h1.44c1.41,0,2.55-1.14,2.55-2.55L155.6,116.91z"/>
<path id="Path_222" class="st79" d="M97.69,153.28l-19.66-21.5l19.66-21.5v-1.81c0-1.41-1.14-2.55-2.55-2.55H93.7l-19.67,21.49
	l-19.66-21.49h-1.44c-1.41,0-2.55,1.14-2.55,2.55v1.82l19.66,21.5l-19.66,21.49v1.82c0,1.41,1.14,2.55,2.55,2.55h1.44l19.66-21.5
	l19.66,21.5h1.44c1.41,0,2.55-1.14,2.55-2.55L97.69,153.28z"/>
</svg>
