<?xml version="1.0" encoding="utf-8"?>
<!-- Generator: Adobe Illustrator 24.0.2, SVG Export Plug-In . SVG Version: 6.00 Build 0)  -->
<svg version="1.1" id="Lag_1" xmlns="http://www.w3.org/2000/svg" xmlns:xlink="http://www.w3.org/1999/xlink" x="0px" y="0px"
	 viewBox="0 0 1050 700" style="enable-background:new 0 0 1050 700;" xml:space="preserve">
<style type="text/css">
	.st90{fill:#A3A8B2;}
	.st91{fill:#535D71;}
	.sy92{fill:#CA9D62;}
	.st93{fill:#FFDB6A;}
	.st94{fill:#AA8F3D;}
</style>
<g id="butterfly" transform="translate(0 -70.989)">
	<path id="Path_249" class="st90" d="M512.15,415.38l-334.9,334.89c0,0-71.58-98.04,51.11-216.99
		C373.99,392.06,512.15,415.38,512.15,415.38z"/>
	<path id="Path_250" class="st91" d="M512.12,415.32l-334.9,334.93c0,0,98.02,71.55,216.99-51.14
		C535.41,553.51,512.12,415.32,512.12,415.32z"/>
	<path id="Path_251" class="sy92" d="M37.04,72.85l447.97,447.94c0,0-131.13,95.72-290.26-68.37C5.89,257.66,37.04,72.85,37.04,72.85
		z"/>
	<path id="Path_252" class="st93" d="M37.02,72.91l447.94,447.94c0,0,95.72-131.13-68.37-290.26
		C221.81,41.72,37.02,72.91,37.02,72.91z"/>
	<path id="Path_253" class="st93" d="M138.33,511.38c-0.02,6.43-5.24,11.63-11.67,11.61s-11.63-5.24-11.61-11.67
		c0.02-6.42,5.22-11.61,11.64-11.61c6.41-0.02,11.63,5.17,11.64,11.59C138.33,511.32,138.33,511.35,138.33,511.38z"/>
	<circle id="Ellipse_53" class="st93" cx="149.41" cy="546.25" r="7.49"/>
	<circle id="Ellipse_54" class="st90" cx="141.1" cy="469.77" r="6.66"/>
	<circle id="Ellipse_55" class="st90" cx="110.34" cy="601.99" r="19.11"/>
	<circle id="Ellipse_56" class="st93" cx="84.85" cy="389.12" r="25.77"/>
	<path id="Path_254" class="st90" d="M538.65,415.38l334.9,334.91c0,0,71.55-98.04-51.11-216.99
		C676.8,392.06,538.65,415.38,538.65,415.38z"/>
	<path id="Path_255" class="st91" d="M538.68,415.32l334.91,334.93c0,0-98.02,71.55-216.99-51.14
		C515.36,553.51,538.68,415.32,538.68,415.32z"/>
	<path id="Path_256" class="sy92" d="M1013.73,72.85L565.79,520.79c0,0,131.13,95.72,290.26-68.37
		C1044.91,257.66,1013.73,72.85,1013.73,72.85z"/>
	<path id="Path_257" class="st93" d="M1013.78,72.91L565.84,520.84c0,0-95.75-131.13,68.37-290.26
		C828.99,41.72,1013.78,72.91,1013.78,72.91z"/>
	<path id="Path_258" class="st93" d="M912.47,511.38c0.02,6.43,5.24,11.63,11.67,11.61c6.43-0.02,11.63-5.24,11.61-11.67
		c-0.02-6.42-5.22-11.61-11.64-11.61c-6.41-0.02-11.63,5.17-11.64,11.59C912.47,511.32,912.47,511.35,912.47,511.38z"/>
	<circle id="Ellipse_57" class="st93" cx="901.36" cy="546.25" r="7.49"/>
	<circle id="Ellipse_58" class="st90" cx="909.66" cy="469.77" r="6.64"/>
	<circle id="Ellipse_59" class="st90" cx="940.47" cy="601.99" r="19.13"/>
	<circle id="Ellipse_60" class="st93" cx="965.94" cy="389.12" r="25.77"/>
	<path id="Path_259" class="sy92" d="M610.13,556.87c1.88-122.78-83.75-136.84-84.71-136.96v-0.02h-0.03v0.03
		c-0.96,0.12-86.63,14.18-84.71,136.96c2.24,146.11,84.23,204.85,84.71,205.19v0.03l0.03,0.03v-0.06
		C525.9,761.74,607.89,702.98,610.13,556.87z"/>
	<path id="Path_260" class="st93" d="M525.38,762.06v0.03l0.03,0.03v-0.06c0.48-0.33,82.47-59.08,84.71-205.19
		c1.88-122.78-83.75-136.84-84.71-136.96v-0.02h-0.03v0.03"/>
	<path id="Path_261" class="st91" d="M525.38,468.84v-0.03h0.03v0.03c0.9,0.12,73.96,12.3,83.58,111.04
		c0.57-7.46,1.01-15.05,1.14-23.02c1.88-122.78-83.75-136.84-84.71-136.96v-0.02h-0.03v0.03c-0.96,0.12-86.63,14.18-84.71,136.96
		c0.12,7.97,0.57,15.56,1.14,23.02C451.42,481.14,524.48,468.97,525.38,468.84z"/>
	<path id="Path_262" class="st91" d="M525.41,517.74h-0.03c-0.84,0.12-63.38,10.67-80.37,90.32c1.58,9.99,3.64,19.22,5.93,28.15
		c22.33-60.73,73.73-69.41,74.44-69.54h0.03c0.72,0.12,52.09,8.79,74.44,69.54c2.27-8.92,4.35-18.16,5.93-28.15
		C588.76,528.39,526.22,517.87,525.41,517.74z"/>
	<path id="Path_263" class="st91" d="M525.38,664.51v-0.03h0.03v0.03c0.55,0.05,28.43,4.7,52.09,31.21
		c5.09-9.81,9.54-19.93,13.34-30.3c-24.78-43.1-64.81-49.73-65.45-49.82v-0.03h-0.02v0.03c-0.65,0.09-40.67,6.74-65.48,49.82
		c3.81,10.37,8.27,20.49,13.34,30.3C496.92,669.21,524.84,664.56,525.38,664.51z"/>
	<path id="Path_264" class="st91" d="M525.38,762.06v0.03l0.03,0.03v-0.06c0.22-0.12,15.21-10.99,32.5-34.5
		c-9.81-6.79-20.85-11.6-32.5-14.16h-0.03c-11.65,2.56-22.69,7.37-32.5,14.16C510.18,751.08,525.17,761.94,525.38,762.06z"/>
	<path id="Path_265" class="st94" d="M566.94,382.79c0.01,22.95-18.59,41.56-41.54,41.57c-22.95,0.01-41.56-18.59-41.57-41.54
		c0-0.01,0-0.03,0-0.04c0-22.96,18.61-58.19,41.55-58.19C548.32,324.59,566.94,359.83,566.94,382.79z"/>
</g>
</svg>
