<?xml version="1.0" encoding="utf-8"?>
<!-- Generator: Adobe Illustrator 24.0.2, SVG Export Plug-In . SVG Version: 6.00 Build 0)  -->
<svg version="1.1" id="Lag_1" xmlns="http://www.w3.org/2000/svg" xmlns:xlink="http://www.w3.org/1999/xlink" x="0px" y="0px"
	 viewBox="0 0 181 181" style="enable-background:new 0 0 181 181;" xml:space="preserve">
<style type="text/css">
	.st0{fill:#5C5E70;}
	.st1{fill:#F9EED7;}
	.st2{fill:#E8DBC4;}
	.st3{fill:#535D71;}
</style>
<path id="Path_57" class="st0" d="M180.9,90.67c0,6.71-0.74,13.41-2.22,19.96c-2.22,9.82-6.09,19.19-11.43,27.72
	c-0.22,0.36-0.45,0.72-0.68,1.08c-26.85,41.83-82.53,53.97-124.36,27.11C17.25,150.51,1.79,123.22,0.88,93.57
	c-0.03-0.96-0.05-1.93-0.05-2.9c-0.01-8.54,1.2-17.03,3.58-25.23c2.43-8.32,6.05-16.25,10.75-23.53C42.06,0.1,97.77-12,139.58,14.9
	c19.46,12.52,33.36,32.05,38.8,54.54c0.75,3.09,1.33,6.22,1.74,9.37c0.41,3.11,0.66,6.24,0.74,9.37
	C180.89,89.01,180.9,89.83,180.9,90.67z"/>
<path id="Path_58" class="st1" d="M166.57,45.57v93.86c-26.94,41.81-82.67,53.87-124.48,26.93c-10.79-6.95-19.97-16.13-26.93-26.93
	V8.65c0-4.43,3.59-8.02,8.02-8.02c0,0,0,0,0,0h98.46L166.57,45.57z"/>
<path id="Path_59" class="st2" d="M121.64,37.55V0.63l44.93,44.93h-36.91C125.23,45.57,121.64,41.98,121.64,37.55z"/>
<path id="Path_60" class="st3" d="M166.57,117.04v22.39c-26.94,41.81-82.67,53.87-124.48,26.93c-10.79-6.95-19.97-16.13-26.93-26.93
	v-22.39H166.57z"/>
<g id="Group_3" transform="translate(51.503 125.874)">
	<path id="Path_61" class="st1" d="M12.27,7.24c-2.65,0-4.18,1.49-4.18,4.65v12.32c0,3.16,1.53,4.65,4.23,4.65
		c3.72,0,3.95-2.84,4.09-4.65c0.14-1.72,1.72-2.18,3.58-2.18c2.51,0,3.67,0.65,3.67,3.44c0,6.18-5.02,9.72-11.67,9.72
		c-6.09,0-11.16-2.98-11.16-10.97V11.89c0-8,5.07-10.97,11.16-10.97c6.65,0,11.67,3.35,11.67,9.25c0,2.79-1.16,3.44-3.63,3.44
		c-1.95,0-3.53-0.51-3.63-2.18C16.36,10.21,16.22,7.24,12.27,7.24z"/>
	<path id="Path_62" class="st1" d="M45.93,25.79c0-5.63-14.74-4.65-14.74-15.53c0-6.98,6.09-9.63,11.9-9.63
		c2.46,0,9.25,0.46,9.25,4.09c0,1.26-0.84,3.81-2.88,3.81c-1.67,0-2.56-1.77-6.37-1.77c-3.3,0-4.65,1.35-4.65,2.79
		c0,4.65,14.74,3.77,14.74,15.48c0,6.7-4.88,10.32-11.63,10.32c-6.09,0-11.21-2.98-11.21-6.04c0-1.58,1.4-3.91,3.16-3.91
		c2.18,0,3.58,3.44,7.9,3.44C43.56,28.86,45.93,28.02,45.93,25.79z"/>
	<path id="Path_63" class="st1" d="M75.36,25.79c0-5.63-14.74-4.65-14.74-15.53c0-6.98,6.09-9.63,11.9-9.63
		c2.46,0,9.25,0.46,9.25,4.09c0,1.26-0.84,3.81-2.88,3.81c-1.67,0-2.56-1.77-6.37-1.77c-3.3,0-4.65,1.35-4.65,2.79
		c0,4.65,14.74,3.77,14.74,15.48c0,6.7-4.88,10.32-11.63,10.32c-6.09,0-11.21-2.98-11.21-6.04c0-1.58,1.39-3.91,3.16-3.91
		c2.18,0,3.58,3.44,7.9,3.44C72.99,28.86,75.36,28.02,75.36,25.79z"/>
</g>
<g id="Group_4" transform="translate(61.317 42.894)">
	<path id="Path_64" class="st3" d="M4.55,19.18c0-1.3-0.93-5.65-0.93-7.69c0-5.64,7.01-10.85,13.59-10.85c4.28,0,5.4,2.23,5.4,4.22
		c0,1.8-0.93,3.91-2.92,3.91c-1.86,0-6.39,0.68-6.39,4.03c0,1.49,0.93,6.14,0.93,7.63c-0.06,1.62-0.89,3.12-2.23,4.03
		c0.87,0.25,2.23,2.05,2.23,3.97c0,1.55-0.93,8.44-0.93,9.68c0,2.67,4.22,3.29,6.39,3.29c2.29,0,2.92,2.48,2.92,4.03
		c0,2.79-1.92,4.09-5.52,4.09c-6.51,0-13.46-4.22-13.46-10.17c0-2.17,0.93-8.37,0.93-9.74c0-2.67-3.72-0.93-3.72-5.34
		C0.83,19.93,4.55,21.73,4.55,19.18z"/>
	<path id="Path_65" class="st3" d="M54.54,29.6c0,1.37,0.93,7.57,0.93,9.74c0,5.96-6.95,10.17-13.46,10.17
		c-3.6,0-5.52-1.3-5.52-4.09c0-1.55,0.62-4.03,2.92-4.03c2.17,0,6.39-0.62,6.39-3.29c0-1.24-0.93-8.13-0.93-9.68
		c0-1.92,1.36-3.72,2.23-3.97c-1.35-0.91-2.18-2.41-2.23-4.03c0-1.49,0.93-6.14,0.93-7.63c0-3.35-4.53-4.03-6.39-4.03
		c-1.98,0-2.92-2.11-2.92-3.91c0-1.99,1.12-4.22,5.4-4.22c6.58,0,13.58,5.21,13.58,10.86c0,2.05-0.93,6.39-0.93,7.69
		c0,2.54,3.72,0.74,3.72,5.09C58.27,28.67,54.54,26.94,54.54,29.6z"/>
</g>
</svg>
