<?xml version="1.0" encoding="utf-8"?>
<!-- Generator: Adobe Illustrator 24.0.2, SVG Export Plug-In . SVG Version: 6.00 Build 0)  -->
<svg version="1.1" id="Lag_1" xmlns="http://www.w3.org/2000/svg" xmlns:xlink="http://www.w3.org/1999/xlink" x="0px" y="0px"
	 viewBox="0 0 181 181" style="enable-background:new 0 0 181 181;" xml:space="preserve">
<style type="text/css">
	.st19{fill:#535D71;}
	.st20{fill:#EDEDED;}
	.st21{fill:#2F323E;}
	.st22{fill:#A3A8B2;}
	.st23{fill:#D6D6D6;}
	.st24{fill:#A9814C;}
	.st25{fill:#CA9D62;}
	.st26{fill:#DBAF76;}
	.st27{fill:#AA8F3D;}
	.st28{fill:#C9AB4E;}
	.st29{fill:#FFDB6A;}
</style>
<path id="Path_97" class="st19" d="M180.54,90.51c0,0.99-0.02,1.97-0.05,2.96c-0.46,14.58-4.47,28.82-11.68,41.5l0,0
	c-14.89,26.18-41.87,43.19-71.91,45.36c-2.12,0.15-4.25,0.22-6.4,0.22c-3.06,0-6.12-0.15-9.17-0.46c-1.75-0.18-3.48-0.4-5.2-0.68
	c-8.79-1.41-17.32-4.12-25.31-8.05c-0.16-0.08-0.31-0.15-0.47-0.23c-4.13-2.06-8.1-4.44-11.87-7.12c-0.03-0.03-0.07-0.05-0.1-0.08
	c-7.4-5.26-13.96-11.6-19.47-18.82c-1.04-1.36-2.05-2.76-3.01-4.18C-11.94,99.73-1.12,43.76,40.08,15.91S137.25-1.12,165.1,40.08
	C175.17,54.97,180.55,72.53,180.54,90.51z"/>
<path id="Path_98" class="st20" d="M180.5,93.46c-0.46,14.58-4.47,28.82-11.68,41.5l0,0c-2.57,4.53-5.54,8.82-8.85,12.83
	l-63.06,32.52c-2.12,0.15-4.25,0.22-6.4,0.22c-3.06,0-6.12-0.15-9.17-0.46c-1.75-0.18-3.48-0.4-5.2-0.68
	c-8.79-1.41-17.32-4.12-25.31-8.05c-0.16-0.08-0.31-0.15-0.47-0.23c-4.13-2.06-8.1-4.44-11.87-7.12c-0.03-0.03-0.07-0.05-0.1-0.08
	l-8.97-17.38c-1.46-2.82-0.35-6.29,2.47-7.74l130.74-67.43c2.82-1.45,6.29-0.35,7.74,2.47L180.5,93.46z"/>
<path id="Path_99" class="st21" d="M179.08,106.76c-1.8,9.91-5.27,19.45-10.26,28.2l0,0l-11.18,5.76c-3.21,1.65-7.15,0.39-8.81-2.82
	L131,103.32c-1.65-3.21-0.39-7.15,2.81-8.8c0,0,0,0,0,0l24.95-12.87c3.21-1.65,7.15-0.39,8.81,2.82L179.08,106.76z"/>
<path id="Path_100" class="st19" d="M136.24,151.77l-23.53,12.14c-3.21,1.65-7.15,0.39-8.81-2.82L86.06,126.5
	c-1.66-3.21-0.4-7.15,2.81-8.81c0,0,0,0,0,0l23.53-12.14c3.21-1.66,7.15-0.4,8.81,2.81c0,0,0,0,0,0l17.84,34.59
	C140.71,146.17,139.45,150.11,136.24,151.77C136.24,151.77,136.24,151.77,136.24,151.77z"/>
<path id="Path_101" class="st22" d="M91.29,174.95l-9.95,5.13c-1.75-0.18-3.48-0.4-5.2-0.68c-8.79-1.41-17.32-4.12-25.31-8.05
	c-0.16-0.08-0.31-0.15-0.47-0.23l-10.68-20.71c-1.65-3.21-0.4-7.15,2.81-8.8c0,0,0,0,0,0l24.95-12.87c3.21-1.65,7.15-0.39,8.81,2.82
	l17.84,34.59C95.76,169.35,94.5,173.29,91.29,174.95L91.29,174.95z"/>
<path id="Path_102" class="st23" d="M151.21,59.22L76.14,179.4c-13.57-2.18-26.45-7.45-37.65-15.4
	c-7.44-5.28-14.04-11.64-19.57-18.89L94.63,23.88c1.68-2.69,5.23-3.51,7.92-1.83l46.82,29.24
	C152.07,52.98,152.89,56.52,151.21,59.22L151.21,59.22z"/>
<path id="Path_103" class="st24" d="M140.66,62.23l-14.88,23.82c-1.91,3.06-5.95,4-9.01,2.08c0,0,0,0,0,0L83.76,67.51
	c-3.06-1.91-4-5.95-2.08-9.01c0,0,0,0,0,0l14.88-23.82c1.91-3.06,5.95-4,9.01-2.08c0,0,0,0,0,0l33.01,20.62
	C141.64,55.13,142.57,59.17,140.66,62.23z"/>
<path id="Path_104" class="st25" d="M113.02,106.48L99,128.93c-1.91,3.06-5.95,3.99-9.01,2.08c0,0,0,0,0,0L56.98,110.4
	c-3.06-1.91-3.99-5.95-2.08-9.01c0,0,0,0,0,0l14.03-22.46c1.91-3.06,5.94-4,9.01-2.08c0,0,0,0,0,0l33.01,20.62
	C114.01,99.38,114.94,103.41,113.02,106.48z"/>
<path id="Path_105" class="st26" d="M51.14,119.74l33.01,20.61c3.06,1.91,4,5.94,2.08,9.01c0,0,0,0,0,0l-14.88,23.82
	c-1.91,3.06-5.94,4-9.01,2.08c0,0,0,0,0,0l-33.01-20.61c-3.06-1.91-4-5.95-2.08-9.01c0,0,0,0,0,0l14.87-23.82
	C44.04,118.76,48.07,117.83,51.14,119.74C51.14,119.74,51.14,119.74,51.14,119.74z"/>
<path id="Path_106" class="st20" d="M75.25,18.51v147.1c0,3.17-2.57,5.75-5.75,5.75c0,0,0,0,0,0H50.84
	c-18.69-9.2-33.62-24.57-42.28-43.51V18.51c0-3.17,2.57-5.75,5.75-5.75h55.2C72.68,12.76,75.25,15.33,75.25,18.51L75.25,18.51z"/>
<path id="Path_107" class="st27" d="M67.9,26.65v28.08c0,3.61-2.93,6.54-6.54,6.54c0,0,0,0,0,0H22.45c-3.61,0-6.54-2.93-6.54-6.54
	l0,0V26.65c0-3.61,2.93-6.54,6.54-6.54h0h38.92C64.98,20.11,67.9,23.04,67.9,26.65z"/>
<path id="Path_108" class="st28" d="M67.9,78.82v26.48c0,3.61-2.93,6.54-6.54,6.54c0,0,0,0,0,0H22.45c-3.61,0-6.54-2.93-6.54-6.54
	c0,0,0,0,0,0V78.82c0-3.61,2.93-6.54,6.54-6.54c0,0,0,0,0,0h38.92C64.98,72.28,67.9,75.21,67.9,78.82z"/>
<path id="Path_109" class="st29" d="M67.9,129.39v28.08c0,3.61-2.93,6.54-6.54,6.54H38.49c-8.85-6.28-16.5-14.09-22.59-23.08v-11.54
	c0-3.61,2.93-6.54,6.54-6.54h38.92C64.98,122.85,67.9,125.78,67.9,129.39C67.9,129.39,67.9,129.39,67.9,129.39z"/>
</svg>
