<?xml version="1.0" encoding="utf-8"?>
<!-- Generator: Adobe Illustrator 24.0.2, SVG Export Plug-In . SVG Version: 6.00 Build 0)  -->
<svg version="1.1" id="Lag_1" xmlns="http://www.w3.org/2000/svg" xmlns:xlink="http://www.w3.org/1999/xlink" x="0px" y="0px"
	 viewBox="0 0 181 181" style="enable-background:new 0 0 181 181;" xml:space="preserve">
<style type="text/css">
	.st0{fill:#5C5E70;}
	.st1{fill:#F9EED7;}
	.st2{fill:#E8DBC4;}
	.st5{fill:#BA915B;}
</style>
<path id="Path_46" class="st0" d="M180.9,90.67c0,6.71-0.74,13.41-2.22,19.96c-2.22,9.82-6.09,19.19-11.43,27.72
	c-0.22,0.36-0.45,0.72-0.68,1.08c-26.85,41.83-82.53,53.97-124.36,27.11C17.25,150.51,1.79,123.22,0.88,93.57
	c-0.03-0.96-0.05-1.93-0.05-2.9c-0.01-8.54,1.2-17.03,3.58-25.23c2.43-8.32,6.05-16.25,10.75-23.53C42.06,0.1,97.77-12,139.58,14.9
	c19.46,12.52,33.36,32.05,38.8,54.54c0.75,3.09,1.33,6.22,1.74,9.37c0.41,3.11,0.66,6.24,0.74,9.37
	C180.89,89.01,180.9,89.83,180.9,90.67z"/>
<path id="Path_47" class="st1" d="M166.57,45.57v93.86c-26.94,41.81-82.67,53.87-124.48,26.93c-10.79-6.95-19.97-16.13-26.93-26.93
	V8.65c0-4.43,3.59-8.02,8.02-8.02c0,0,0,0,0,0h98.46L166.57,45.57z"/>
<path id="Path_48" class="st2" d="M121.64,37.55V0.63l44.93,44.93h-36.91C125.23,45.57,121.64,41.98,121.64,37.55z"/>
<g id="Group_1" transform="translate(14.332 40.646)">
	<path id="Path_49" class="st5" d="M152.24,76.39v22.39c-26.94,41.81-82.67,53.87-124.48,26.93c-10.79-6.95-19.97-16.13-26.93-26.93
		V76.39H152.24z"/>
	<path id="Path_50" class="st5" d="M39.43,26.8l15.14-9.84c0.33-0.22,0.73-0.33,1.13-0.3c2.25,0.23,3.99,2.09,4.05,4.35
		c0.05,0.9-0.35,1.78-1.07,2.32l-10.49,6.79l10.49,6.8c0.72,0.55,1.12,1.42,1.07,2.32c-0.07,2.26-1.8,4.12-4.05,4.35
		c-0.4,0.03-0.8-0.08-1.13-0.3l-15.14-9.83c-1.84-1.15-2.4-3.58-1.25-5.43C38.5,27.54,38.93,27.12,39.43,26.8z"/>
	<path id="Path_51" class="st5" d="M90.15,3.79c0.01,0.39-0.07,0.78-0.24,1.13L68.93,47.9c-0.55,0.95-1.58,1.53-2.68,1.49
		c-1.78,0.02-3.26-1.38-3.34-3.16c0.02-0.39,0.12-0.78,0.3-1.13L84.14,2.12c0.46-0.96,1.44-1.54,2.5-1.49
		C88.47,0.57,90.02,1.97,90.15,3.79z"/>
	<path id="Path_52" class="st5" d="M113.64,33.48L98.5,43.31c-0.33,0.22-0.73,0.33-1.13,0.3c-2.25-0.22-3.99-2.09-4.05-4.35
		c-0.05-0.9,0.35-1.78,1.07-2.32l10.49-6.8l-10.49-6.79c-0.72-0.55-1.12-1.42-1.07-2.32c0.07-2.26,1.8-4.12,4.05-4.35
		c0.4-0.03,0.8,0.08,1.13,0.3l15.14,9.84c1.84,1.15,2.4,3.58,1.25,5.43C114.57,32.74,114.14,33.17,113.64,33.48L113.64,33.48z"/>
</g>
<g id="Group_2" transform="translate(42.336 128.583)">
	<path id="Path_53" class="st1" d="M15.71,17.9H7.37v11.36c0,1.34-1.63,2.01-3.27,2.01s-3.27-0.67-3.27-2.01V2.6
		c0-1.38,1.63-1.97,3.27-1.97S7.37,1.22,7.37,2.6v10.27h8.34V2.6c0-1.38,1.63-1.97,3.27-1.97s3.27,0.59,3.27,1.97v26.65
		c0,1.34-1.63,2.01-3.27,2.01s-3.27-0.67-3.27-2.01L15.71,17.9z"/>
	<path id="Path_54" class="st1" d="M47.01,0.64c1.38,0,1.97,1.51,1.97,2.89c0,1.59-0.71,2.98-1.97,2.98h-5.78v22.75
		c0,1.34-1.63,2.01-3.27,2.01s-3.27-0.67-3.27-2.01V6.5h-5.78c-1.26,0-1.97-1.38-1.97-2.98c0-1.38,0.59-2.89,1.97-2.89L47.01,0.64z"
		/>
	<path id="Path_55" class="st1" d="M68.42,20.41c-0.44,0.78-1.28,1.25-2.18,1.21c-0.87,0.05-1.68-0.43-2.05-1.21l-3.98-7.29v16.13
		c0,1.34-1.63,2.01-3.27,2.01s-3.27-0.67-3.27-2.01V3.9c-0.14-1.66,1.1-3.13,2.76-3.27c0.17-0.01,0.34-0.01,0.51,0
		c2.35,0,3.35,0.25,5.07,3.27l4.32,7.54l4.32-7.54c1.72-3.02,2.72-3.27,5.07-3.27c1.65-0.15,3.12,1.06,3.27,2.72
		C79,3.54,79,3.72,78.98,3.9v25.35c0,1.34-1.63,2.01-3.27,2.01s-3.27-0.67-3.27-2.01V13.54L68.42,20.41z"/>
	<path id="Path_56" class="st1" d="M88.45,31.27c-1.42,0-2.85-0.67-2.85-2.01V2.6c0-1.38,1.63-1.97,3.27-1.97s3.27,0.59,3.27,1.97
		v22.96h9.55c1.26,0,1.89,1.42,1.89,2.85s-0.63,2.85-1.89,2.85H88.45z"/>
</g>
</svg>
