<?xml version="1.0" encoding="utf-8"?>
<!-- Generator: Adobe Illustrator 24.0.2, SVG Export Plug-In . SVG Version: 6.00 Build 0)  -->
<svg version="1.1" id="Lag_1" xmlns="http://www.w3.org/2000/svg" xmlns:xlink="http://www.w3.org/1999/xlink" x="0px" y="0px"
	 viewBox="0 0 181 181" style="enable-background:new 0 0 181 181;" xml:space="preserve">
<style type="text/css">
	.st0{fill:#5C5E70;}
	.st1{fill:#F9EED7;}
	.st2{fill:#E8DBC4;}
	.st6{fill:#A3A8B2;}
</style>
<path id="Path_66" class="st0" d="M180.54,90.49c0,6.71-0.74,13.4-2.22,19.94c-2.22,9.82-6.08,19.19-11.43,27.71
	c-0.21,0.35-0.46,0.7-0.67,1.09c-26.93,41.81-82.65,53.88-124.46,26.95c-10.8-6.96-19.99-16.15-26.95-26.95
	c-7.14-11.01-11.76-23.47-13.51-36.47c-0.42-3.1-0.68-6.23-0.77-9.35c-0.07-0.99-0.07-1.93-0.07-2.92c0-8.53,1.21-17.02,3.59-25.22
	c0.93-3.18,2.04-6.3,3.31-9.35C26.51,10,79.26-11.69,125.18,7.46c23.27,9.71,41.41,28.73,50.01,52.43c1.1,3.07,2.04,6.19,2.81,9.35
	c0.75,3.09,1.34,6.21,1.76,9.35c0.43,3.1,0.67,6.23,0.74,9.35C180.54,88.84,180.54,89.65,180.54,90.49z"/>
<path id="Path_67" class="st1" d="M166.19,45.41v93.87c-26.94,41.79-82.66,53.84-124.46,26.9c-10.79-6.96-19.97-16.14-26.92-26.93
	V8.48c0-4.43,3.58-8.02,8.01-8.02c0,0,0.01,0,0.01,0h98.44L166.19,45.41z"/>
<path id="Path_68" class="st2" d="M121.27,37.39V0.46l44.95,44.95h-36.93C124.87,45.41,121.28,41.82,121.27,37.39
	C121.27,37.39,121.27,37.39,121.27,37.39z"/>
<g id="Group_5" transform="translate(14.35 41.747)">
	<path id="Path_69" class="st6" d="M151.84,75.12v22.4c-26.94,41.8-82.66,53.84-124.46,26.9c-10.79-6.95-19.97-16.14-26.92-26.93
		V75.12H151.84z"/>
	<path id="Path_70" class="st6" d="M45.66,18.15c0-1.23-0.88-5.38-0.88-7.35c0-5.38,6.68-10.34,12.94-10.34
		c4.08,0,5.13,2.14,5.13,4.01c0,1.72-0.88,3.73-2.78,3.73c-1.76,0-6.09,0.67-6.09,3.83c0,1.41,0.88,5.87,0.88,7.28
		c0,1.76-1.41,3.62-2.15,3.83c0.84,0.25,2.15,1.97,2.15,3.8c0,1.48-0.88,8.05-0.88,9.21c0,2.53,4.01,3.13,6.09,3.13
		c2.18,0,2.78,2.36,2.78,3.83c0,2.67-1.83,3.9-5.28,3.9c-6.23,0-12.84-4.01-12.84-9.71c0-2.07,0.88-7.98,0.88-9.29
		c0-2.53-3.55-0.88-3.55-5.1C42.11,18.89,45.66,20.58,45.66,18.15z"/>
	<path id="Path_71" class="st6" d="M80.51,34.29c0,0.7-0.18,1.37-3.66,9.46c-0.3,0.69-1.01,1.11-1.76,1.05
		c-1.23,0-2.95-0.84-2.95-2.32c0.01-0.33,0.09-0.66,0.25-0.95l1.48-3.2c-1.44-0.83-2.33-2.35-2.36-4.01c-0.01-2.5,2-4.55,4.5-4.57
		C78.47,29.84,80.44,31.83,80.51,34.29z M80.86,18.15c-0.04,2.48-2.02,4.5-4.5,4.57c-2.53,0.04-4.61-1.97-4.65-4.5
		c-0.04-2.53,1.97-4.61,4.5-4.65c2.53-0.04,4.61,1.97,4.65,4.5C80.86,18.1,80.86,18.12,80.86,18.15z"/>
	<path id="Path_72" class="st6" d="M106.64,28.1c0,1.3,0.88,7.21,0.88,9.29c0,5.7-6.61,9.71-12.84,9.71c-3.45,0-5.28-1.23-5.28-3.9
		c0-1.48,0.6-3.83,2.78-3.83c2.08,0,6.08-0.6,6.08-3.13c0-1.2-0.88-7.74-0.88-9.21c0-1.83,1.3-3.55,2.14-3.8
		c-1.28-0.87-2.08-2.29-2.14-3.83c0-1.41,0.88-5.87,0.88-7.28c0-3.2-4.33-3.83-6.08-3.83c-1.9,0-2.78-2-2.78-3.73
		c0-1.9,1.05-4.01,5.14-4.01c6.26,0,12.94,4.96,12.94,10.34c0,1.97-0.88,6.09-0.88,7.35c0,2.43,3.55,0.7,3.55,4.85
		C110.2,27.22,106.64,25.57,106.64,28.1z"/>
</g>
<path id="Path_73" class="st1" d="M73.51,134.88c-1.41,0-2.18-1.48-2.18-3.2c0-1.48,0.67-3.13,2.18-3.13h8.12
	c1.58,0,3.16,0.74,3.16,2.22v21.07c0,7.98-5.07,10.97-11.15,10.97c-6.65,0-11.68-3.52-11.68-9.71c0-2.78,1.16-3.45,3.66-3.45
	c1.86,0,3.45,0.46,3.59,2.18c0.14,1.83,0.39,4.64,4.08,4.64c2.71,0,4.22-1.48,4.22-4.64v-16.98L73.51,134.88L73.51,134.88z"/>
<path id="Path_74" class="st1" d="M109.67,153.48c0-5.63-14.74-4.64-14.74-15.55c0-6.96,6.08-9.64,11.89-9.64
	c2.46,0,9.25,0.46,9.25,4.08c0,1.27-0.84,3.8-2.88,3.8c-1.69,0-2.57-1.76-6.37-1.76c-3.31,0-4.64,1.34-4.64,2.78
	c0,4.64,14.74,3.76,14.74,15.48c0,6.68-4.89,10.3-11.64,10.3c-6.08,0-11.22-2.99-11.22-6.05c0-1.58,1.41-3.9,3.17-3.9
	c2.18,0,3.59,3.45,7.91,3.45C107.31,156.54,109.67,155.7,109.67,153.48z"/>
</svg>
