<?xml version="1.0" encoding="utf-8"?>
<!-- Generator: Adobe Illustrator 24.0.2, SVG Export Plug-In . SVG Version: 6.00 Build 0)  -->
<svg version="1.1" id="Lag_1" xmlns="http://www.w3.org/2000/svg" xmlns:xlink="http://www.w3.org/1999/xlink" x="0px" y="0px"
	 viewBox="0 0 181 181" style="enable-background:new 0 0 181 181;" xml:space="preserve">
<style type="text/css">
	.st7{fill:#535D71;}
	.st8{fill:#CA9D62;}
	.st9{fill:#FFDB6A;}
	.st10{fill:#C9AB4E;}
	.st11{fill:#AA8F3D;}
</style>
<g id="gears" transform="translate(0 0)">
	<path id="Path_75" class="st7" d="M180.55,91.22c0.22,49.75-39.93,90.27-89.68,90.49c-6.1,0.03-12.19-0.56-18.17-1.77
		c-3.15-0.64-5.4-3.41-5.4-6.62c0-3.52-2.86-6.38-6.38-6.38c0,0,0,0,0,0h-17.9c-1.28,0-2.53-0.39-3.58-1.12
		c-9.31-6.43-17.34-14.55-23.66-23.93c-0.8-1.2-1.23-2.6-1.23-4.04v-19.35c0-4.32-3.51-7.83-7.83-7.83c0,0,0,0,0,0
		c-2.51,0-4.64-1.82-5.04-4.29C-6.45,57.31,26.74,10.96,75.8,2.84s95.42,25.07,103.54,74.13C180.12,81.67,180.52,86.44,180.55,91.22
		z"/>
	<path id="Path_76" class="st8" d="M75.46,20.07c0.23-0.74,0.46-1.44,0.61-1.87c2.04-5.8,4.85-11.3,8.35-16.36
		c2.01-0.13,4.05-0.21,6.09-0.21c0.68,0,1.36,0.01,2.03,0.03C88.03,7.2,84.5,13.48,82.12,20.22c-0.14,0.4-0.35,1.05-0.57,1.76
		c-0.53,1.68-2.32,2.62-4,2.09C75.87,23.54,74.93,21.75,75.46,20.07L75.46,20.07z M180.52,89.77
		c-26.88,21.76-66.31,17.61-88.08-9.27c-1.75-2.16-3.35-4.43-4.79-6.8l3.08-1.69c0.68-0.37,0.93-1.23,0.56-1.91
		c-0.15-0.27-0.38-0.48-0.66-0.61l-9.95-4.46c-0.71-0.32-1.54,0-1.86,0.71c-0.05,0.12-0.09,0.24-0.11,0.37L77.12,76.9
		c-0.11,0.77,0.42,1.48,1.19,1.6c0.3,0.04,0.61-0.01,0.88-0.16l2.86-1.57c19.66,32.59,62.02,43.08,94.61,23.42
		c1.25-0.75,2.48-1.55,3.67-2.38c0.14-2.03,0.21-4.07,0.21-6.14C180.55,91.04,180.54,90.4,180.52,89.77L180.52,89.77z M96.59,166.5
		c-1.67-0.5-3.43,0.42-3.96,2.08c-0.23,0.7-0.44,1.36-0.59,1.75c-1.44,3.94-3.26,7.72-5.46,11.29c1.3,0.06,2.61,0.09,3.92,0.09
		c1.15,0,2.3-0.03,3.44-0.07c1.6-2.97,2.99-6.06,4.14-9.24c0.15-0.43,0.39-1.12,0.62-1.86c0.54-1.68-0.38-3.48-2.06-4.02
		C96.63,166.52,96.61,166.51,96.59,166.5L96.59,166.5z M95.88,124.47l1.69-10.77c0.12-0.77-0.4-1.49-1.17-1.61
		c-0.3-0.05-0.61,0-0.88,0.15l-2.88,1.54C73.8,81.9,33.13,70.59,0.55,88.19c-0.04,1.15-0.07,2.31-0.07,3.48
		c0,1.27,0.03,2.54,0.08,3.8c29.52-18.04,68.07-8.74,86.12,20.78c0.11,0.18,0.22,0.36,0.33,0.55l-3.09,1.66
		c-0.68,0.37-0.94,1.22-0.57,1.91c0.14,0.27,0.37,0.49,0.65,0.61l9.91,4.56c0.71,0.32,1.54,0.01,1.87-0.69
		C95.82,124.72,95.86,124.6,95.88,124.47L95.88,124.47z M98.07,130.18c-1.63-0.49-3.34,0.43-3.83,2.05
		c-0.49,1.63,0.43,3.34,2.05,3.83c1.63,0.49,3.34-0.43,3.83-2.05c0,0,0,0,0,0C100.61,132.39,99.69,130.68,98.07,130.18L98.07,130.18
		z M96.63,142.26c-0.6,1.59,0.21,3.36,1.8,3.96c1.59,0.6,3.36-0.21,3.96-1.8c0.6-1.59-0.21-3.36-1.8-3.96c0,0,0,0,0,0
		C99,139.87,97.23,140.67,96.63,142.26z M100.84,149.06c-1.59-0.6-3.36,0.21-3.96,1.8s0.21,3.36,1.8,3.96s3.36-0.21,3.96-1.8
		c0,0,0,0,0,0C103.23,151.43,102.43,149.65,100.84,149.06L100.84,149.06z M99.86,158.03c-1.59-0.6-3.36,0.21-3.96,1.8
		c-0.6,1.59,0.21,3.36,1.8,3.96c1.59,0.6,3.36-0.21,3.96-1.8c0,0,0,0,0,0C102.25,160.4,101.45,158.63,99.86,158.03L99.86,158.03z
		 M76.48,60.42c1.63,0.48,3.34-0.46,3.81-2.09c0.48-1.63-0.46-3.34-2.09-3.81c-1.63-0.48-3.34,0.46-3.81,2.09
		C73.91,58.23,74.84,59.94,76.48,60.42C76.47,60.42,76.48,60.42,76.48,60.42z M77.8,48.33c0.58-1.6-0.24-3.36-1.84-3.94
		c-1.6-0.58-3.36,0.24-3.94,1.84c-0.58,1.6,0.24,3.36,1.84,3.94C75.45,50.75,77.22,49.92,77.8,48.33L77.8,48.33z M73.53,41.57
		c1.6,0.58,3.36-0.24,3.94-1.84c0.58-1.6-0.24-3.36-1.84-3.94c-1.6-0.58-3.36,0.24-3.94,1.84C71.11,39.23,71.93,40.99,73.53,41.57z
		 M74.43,32.59c1.6,0.58,3.36-0.24,3.94-1.84c0.58-1.6-0.24-3.36-1.84-3.94c-1.6-0.58-3.36,0.24-3.94,1.84
		C72.01,30.25,72.83,32.01,74.43,32.59C74.43,32.59,74.43,32.59,74.43,32.59z"/>
	<path id="Path_77" class="st9" d="M73.2,180.04c-12.26-2.39-23.89-7.32-34.13-14.48c9.23-3.18,14.14-13.25,10.96-22.48
		c-3.18-9.23-13.25-14.14-22.48-10.96c-5.14,1.77-9.18,5.81-10.95,10.94c-7.72-11.06-12.83-23.73-14.97-37.05
		c1.12,0.25,2.17,0.74,3.07,1.44l2.61,2.03c2.34-1.54,4.82-2.88,7.39-3.99l-0.32-3.11c-0.44-4.24,2.64-8.04,6.89-8.48
		c3.42-0.35,6.66,1.59,7.95,4.78l1.24,3.05c2.8-0.17,5.62-0.09,8.4,0.25l1.27-2.84c1.74-3.89,6.31-5.64,10.2-3.9
		c3.14,1.4,4.97,4.71,4.5,8.12l-0.45,3.27c2.51,1.25,4.91,2.73,7.16,4.41l2.52-1.82c3.46-2.5,8.29-1.72,10.78,1.74
		c2.01,2.78,1.94,6.55-0.16,9.26l-2.03,2.61c1.55,2.34,2.88,4.82,3.99,7.39l3.11-0.32c4.24-0.44,8.04,2.64,8.48,6.89
		c0.35,3.42-1.59,6.66-4.78,7.95l-3.05,1.24c0.17,2.8,0.09,5.62-0.25,8.4l2.84,1.27c3.9,1.73,5.66,6.29,3.93,10.19
		c-1.4,3.16-4.73,5.01-8.15,4.52l-3.27-0.45c-1.25,2.51-2.73,4.91-4.41,7.16l1.82,2.52C73.01,179.75,73.11,179.9,73.2,180.04
		L73.2,180.04z"/>
	<path id="Path_78" class="st10" d="M50.23,153.96c2.81-9.35-2.49-19.21-11.85-22.02c-9.07-2.73-18.68,2.18-21.79,11.13
		c-2.96-4.25-5.55-8.74-7.73-13.44c10.61-13.5,30.15-15.84,43.65-5.23s15.84,30.15,5.23,43.65c-1.53,1.95-3.3,3.71-5.25,5.25
		c-4.69-2.19-9.18-4.78-13.42-7.74C44.44,163.72,48.59,159.4,50.23,153.96L50.23,153.96z"/>
	<path id="Path_79" class="st11" d="M14.15,139.38c-1.97-3.14-3.74-6.39-5.3-9.74c5.82-7.39,14.67-11.76,24.08-11.88
		c-8.83,3.48-15.59,10.82-18.32,19.92C14.44,138.24,14.29,138.81,14.15,139.38L14.15,139.38z"/>
	<path id="Path_80" class="st9" d="M100.76,2.22c-1.6,2.67-1.44,6.04,0.41,8.55l1.85,2.5c-1.66,2.26-3.11,4.67-4.34,7.2l-3.27-0.42
		c-4.23-0.55-8.1,2.43-8.65,6.67c-0.44,3.41,1.42,6.7,4.58,8.08l2.85,1.25c-0.31,2.79-0.37,5.61-0.17,8.41l-3.04,1.27
		c-3.93,1.65-5.78,6.18-4.13,10.11c1.32,3.16,4.57,5.06,7.97,4.69l3.1-0.35c1.13,2.57,2.49,5.03,4.06,7.36l-2.01,2.63
		c-2.58,3.39-1.93,8.24,1.46,10.82c2.73,2.08,6.5,2.11,9.26,0.08l2.5-1.85c2.26,1.66,4.67,3.11,7.2,4.34l-0.42,3.27
		c-0.54,4.23,2.44,8.1,6.68,8.65c3.4,0.44,6.69-1.42,8.06-4.56l1.25-2.85c2.79,0.31,5.61,0.36,8.41,0.17l1.27,3.04
		c1.63,3.94,6.14,5.82,10.08,4.2c3.19-1.32,5.12-4.59,4.73-8.02l-0.35-3.1c2.57-1.13,5.03-2.49,7.36-4.06l2.63,2.01
		c2.99,2.28,7.19,2.08,9.95-0.49C175.38,40.02,142.5,7.01,100.76,2.22z M158.04,46.12c-2.74,9.38-12.56,14.75-21.93,12.02
		c-9.38-2.74-14.75-12.56-12.02-21.93c2.74-9.38,12.56-14.75,21.93-12.02C155.4,26.92,160.78,36.74,158.04,46.12
		C158.04,46.12,158.04,46.12,158.04,46.12L158.04,46.12z"/>
	<path id="Path_81" class="st10" d="M131.61,11.54c-16.35,5.22-25.38,22.72-20.15,39.07c5.22,16.35,22.72,25.38,39.07,20.15
		c9.58-3.06,17.08-10.56,20.15-20.13C162.05,33.85,148.39,20.18,131.61,11.54z M153.86,44.89c-2.06,7.06-9.46,11.12-16.53,9.05
		s-11.12-9.46-9.05-16.53s9.46-11.12,16.53-9.05c0,0,0,0,0,0C151.86,30.43,155.92,37.83,153.86,44.89z"/>
	<path id="Path_82" class="st11" d="M144.95,72c-17.04,2.14-32.58-9.94-34.72-26.97c-1.86-14.85,7.12-28.93,21.38-33.49
		c1.12,0.58,2.23,1.18,3.32,1.8c-15.36,7.67-21.59,26.35-13.92,41.71C125.65,64.35,134.64,70.71,144.95,72L144.95,72z"/>
	<path id="Path_83" class="st9" d="M61.89,43.44c0-1.5-0.13-2.99-0.39-4.46l1.54-0.85c1.99-1.1,2.71-3.6,1.62-5.59
		c-0.88-1.6-2.71-2.43-4.5-2.03l-1.62,0.36c-0.75-1.29-1.61-2.52-2.57-3.66l0.91-1.51c1.17-1.95,0.54-4.47-1.4-5.65
		c-1.56-0.94-3.55-0.74-4.9,0.49l-1.22,1.12c-1.29-0.75-2.65-1.38-4.06-1.88l0.04-1.76c0.05-2.27-1.75-4.15-4.02-4.2
		c-1.83-0.04-3.47,1.14-4.01,2.88l-0.5,1.58c-1.5,0-2.99,0.13-4.46,0.39l-0.85-1.54c-1.1-1.99-3.6-2.71-5.59-1.62
		c-1.6,0.88-2.43,2.71-2.03,4.5l0.36,1.62c-1.29,0.75-2.52,1.61-3.66,2.57l-1.51-0.91c-1.95-1.17-4.47-0.54-5.65,1.4
		c-0.94,1.56-0.74,3.55,0.49,4.9l1.12,1.22c-0.75,1.29-1.38,2.65-1.88,4.06l-1.76-0.04c-2.27-0.05-4.15,1.76-4.2,4.03
		c-0.04,1.83,1.14,3.46,2.88,4.01l1.58,0.5c0,1.5,0.13,2.99,0.39,4.46l-1.54,0.85c-1.99,1.1-2.71,3.6-1.62,5.59
		c0.88,1.6,2.71,2.43,4.5,2.03l1.62-0.36c0.75,1.29,1.61,2.52,2.57,3.66l-0.91,1.51c-1.17,1.95-0.54,4.47,1.4,5.65
		c1.56,0.94,3.55,0.74,4.9-0.49l1.22-1.12c1.3,0.75,2.66,1.38,4.07,1.88l-0.04,1.76c-0.05,2.27,1.76,4.15,4.03,4.2
		c1.83,0.04,3.46-1.14,4.01-2.88l0.5-1.58c1.5,0,2.99-0.13,4.46-0.39l0.85,1.54c1.1,1.99,3.6,2.71,5.59,1.62
		c1.6-0.88,2.43-2.71,2.03-4.5l-0.36-1.62c1.29-0.75,2.52-1.61,3.66-2.57l1.51,0.91c1.94,1.17,4.47,0.55,5.65-1.39
		c0.94-1.56,0.75-3.56-0.49-4.91L58.52,56c0.75-1.3,1.38-2.66,1.88-4.07l1.76,0.04c2.27,0.05,4.15-1.75,4.2-4.02
		c0.04-1.83-1.14-3.47-2.88-4.01L61.89,43.44z M46.04,45.07c-0.91,5.12-5.8,8.54-10.92,7.63c-5.12-0.91-8.54-5.8-7.63-10.92
		c0.91-5.12,5.8-8.54,10.92-7.63c0,0,0,0,0,0C43.54,35.06,46.95,39.95,46.04,45.07L46.04,45.07z"/>
	<path id="Path_84" class="st10" d="M39.84,26.16c-9.53-1.7-18.63,4.65-20.32,14.18s4.65,18.63,14.18,20.32
		c9.53,1.7,18.63-4.65,20.32-14.18C55.72,36.96,49.37,27.86,39.84,26.16z M48.6,45.52c-1.16,6.53-7.4,10.88-13.93,9.72
		c-6.53-1.16-10.88-7.4-9.72-13.93c1.16-6.53,7.4-10.88,13.93-9.72c0,0,0,0,0,0C45.41,32.76,49.76,38.99,48.6,45.52
		C48.6,45.52,48.6,45.52,48.6,45.52L48.6,45.52z"/>
	<path id="Path_85" class="st11" d="M39.55,60.72C29.99,62.25,21,55.75,19.47,46.19C17.94,36.64,24.44,27.65,34,26.12
		c1.83-0.29,3.69-0.29,5.52-0.01C32.15,27.29,26.34,33,25.03,40.34c-0.16,0.91-0.25,1.83-0.27,2.76c-0.01,0.22-0.01,0.45,0,0.67
		c0.17,8.36,6.22,15.43,14.45,16.9C39.33,60.69,39.44,60.7,39.55,60.72L39.55,60.72z"/>
	<path id="Path_86" class="st9" d="M159.54,149.47c-3.41-5.82-10.9-7.77-16.72-4.36c-5.82,3.41-7.77,10.9-4.36,16.72
		c0.87,1.48,2.04,2.77,3.44,3.77c-5.81,4.05-12.08,7.4-18.68,9.98c-0.9-1.16-1.72-2.38-2.45-3.65l-2.11,0.47
		c-2.88,0.64-5.73-1.17-6.37-4.04c-0.52-2.32,0.56-4.7,2.64-5.84l1.99-1.1c-0.34-1.91-0.51-3.85-0.51-5.79l-2.05-0.64
		c-2.81-0.88-4.38-3.87-3.5-6.69c0.71-2.26,2.83-3.79,5.2-3.74l2.28,0.05c0.66-1.83,1.47-3.59,2.44-5.27l-1.45-1.58
		c-2-2.17-1.86-5.54,0.31-7.54c1.75-1.61,4.36-1.87,6.39-0.64l1.95,1.18c1.48-1.25,3.07-2.36,4.75-3.33l-0.47-2.11
		c-0.64-2.88,1.17-5.73,4.04-6.37c2.32-0.52,4.7,0.56,5.84,2.64l1.1,1.99c1.91-0.34,3.85-0.51,5.79-0.51l0.64-2.05
		c0.88-2.81,3.87-4.38,6.68-3.5c2.26,0.71,3.79,2.83,3.74,5.2l-0.05,2.28c1.83,0.66,3.59,1.47,5.27,2.44l1.58-1.45
		c1.95-1.79,4.91-1.88,6.96-0.22c-3.52,8.59-8.35,16.59-14.32,23.7V149.47z"/>
	<path id="Path_87" class="st10" d="M165.13,142.05c-1.74,2.57-3.6,5.05-5.59,7.42c-3.41-5.82-10.9-7.77-16.72-4.36
		c-5.82,3.41-7.77,10.9-4.36,16.72c0.87,1.48,2.04,2.77,3.44,3.77c-2.49,1.73-5.07,3.34-7.72,4.81c-8.72-7.73-9.51-21.07-1.78-29.79
		c7.73-8.72,21.07-9.51,29.79-1.78C163.28,139.81,164.27,140.88,165.13,142.05L165.13,142.05z"/>
	<path id="Path_88" class="st11" d="M138.02,168.15c-1.26,0.78-2.54,1.53-3.84,2.26c-8.73-7.71-9.55-21.04-1.84-29.76
		c4.71-5.33,11.8-7.93,18.84-6.9c-11.53,1.67-19.53,12.36-17.86,23.89C133.89,161.51,135.51,165.15,138.02,168.15L138.02,168.15z"/>
</g>
</svg>
