<?xml version="1.0" encoding="utf-8"?>
<!-- Generator: Adobe Illustrator 24.0.2, SVG Export Plug-In . SVG Version: 6.00 Build 0)  -->
<svg version="1.1" id="Lag_1" xmlns="http://www.w3.org/2000/svg" xmlns:xlink="http://www.w3.org/1999/xlink" x="0px" y="0px"
	 viewBox="0 0 181 181" style="enable-background:new 0 0 181 181;" xml:space="preserve">
<style type="text/css">
	.st51{fill:#535D71;}
	.st52{fill:#F9CFA9;}
	.st53{fill:#2F323E;}
	.st54{fill:#F9EED7;}
	.st55{fill:#D5F1FE;}
	.st56{fill:#AA8F3D;}
	.st57{fill:#C9AB4E;}
	.st58{fill:#FFDB6A;}
	.st59{fill:#FBBC8D;}
</style>
<path id="Path_142" class="st51" d="M96.28,180.34l48.84-19.32c36.81-30.16,42.2-84.46,12.03-121.26S72.69-2.44,35.88,27.72
	s-42.2,84.46-12.03,121.26c16.37,19.97,40.83,31.55,66.65,31.55C92.44,180.54,94.37,180.47,96.28,180.34L96.28,180.34z"/>
<path id="Path_143" class="st52" d="M141.06,112.64c0.79-8.28-0.68-16.63-4.26-24.14c-9.51-19.35-7.33-20.75-7.63-39.95
	c0-3.92-3.18-7.1-7.1-7.1s-7.1,3.18-7.1,7.1v71.42c0,1.09-0.11,2.17-0.34,3.23v10.22c-0.01,8.63-7,15.62-15.63,15.63H60.12
	c5.98,8.32,14.16,14.82,23.63,18.75l0.18,0.07c5.59,2.37,10.03,6.85,12.36,12.47c17.9-1.17,34.98-7.93,48.84-19.32l-5.29-19.45
	c-0.76-2.78-1.02-5.67-0.79-8.54L141.06,112.64z"/>
<path id="Path_144" class="st52" d="M33.74,41.69l-2.16-2c-3.35-3.1-8.58-2.9-11.68,0.44s-2.9,8.58,0.44,11.68l0,0l13.4,12.42
	L33.74,41.69z"/>
<path id="Path_145" class="st53" d="M104.79,0.46H44.04c-5.9,0.01-10.68,4.79-10.68,10.69v128.01c0,5.9,4.78,10.69,10.68,10.69h60.74
	c5.9-0.01,10.68-4.79,10.69-10.69V11.15C115.47,5.25,110.69,0.47,104.79,0.46z"/>
<path id="Path_146" class="st53" d="M53.94,8.39c-1.66-2.48-1-5.83,1.48-7.49c0.25-0.17,0.51-0.31,0.78-0.43H44.04
	c-5.9,0-10.69,4.79-10.69,10.69c0,0,0,0,0,0v128.01c0,5.9,4.78,10.69,10.69,10.69c0,0,0,0,0,0h12.91V17.76
	C56.9,14.41,55.85,11.15,53.94,8.39L53.94,8.39z"/>
<path id="Path_147" class="st54" d="M39.54,67.98v71.18c0,2.49,2.01,4.5,4.5,4.5h60.75c2.49,0,4.5-2.01,4.5-4.5V67.98H39.54z"/>
<path id="Path_148" class="st55" d="M39.54,67.98v71.18c0,2.49,2.01,4.5,4.5,4.5h10.65V67.98H39.54z"/>
<path id="Path_149" class="st51" d="M64.01,89.46c0,3.89-3.16,7.05-7.05,7.05s-7.05-3.16-7.05-7.05c0-3.89,3.16-7.05,7.05-7.05
	C60.85,82.4,64.01,85.56,64.01,89.46C64.01,89.46,64.01,89.46,64.01,89.46z"/>
<path id="Path_150" class="st51" d="M64.01,115.6c0,3.89-3.16,7.05-7.05,7.05s-7.05-3.16-7.05-7.05s3.16-7.05,7.05-7.05
	C60.85,108.55,64.01,111.71,64.01,115.6z"/>
<path id="Path_151" class="st53" d="M56.16,82.45c-3.87,0.44-6.65,3.93-6.21,7.8c0.44,3.87,3.93,6.65,7.8,6.21
	c2.04-0.23,3.89-1.35,5.04-3.05c-3.87,0.43-7.36-2.35-7.8-6.23C54.81,85.52,55.22,83.84,56.16,82.45z"/>
<path id="Path_152" class="st53" d="M56.16,108.6c-3.87,0.44-6.65,3.93-6.21,7.8c0.44,3.87,3.93,6.65,7.8,6.21
	c2.04-0.23,3.89-1.35,5.04-3.05c-3.87,0.43-7.36-2.35-7.8-6.23C54.81,111.67,55.22,109.99,56.16,108.6z"/>
<g id="Group_8" transform="translate(68.792 80.785)">
	<path id="Path_153" class="st56" d="M16.98,5.74H6.97c-1.46,0-2.64-1.18-2.64-2.64s1.18-2.64,2.64-2.64h10.01
		c1.46,0,2.64,1.18,2.64,2.64S18.44,5.74,16.98,5.74z"/>
	<path id="Path_154" class="st56" d="M27,16.88H6.97c-1.46,0-2.64-1.18-2.64-2.64s1.18-2.64,2.64-2.64H27c1.46,0,2.64,1.18,2.64,2.64
		S28.45,16.88,27,16.88L27,16.88z"/>
	<path id="Path_155" class="st56" d="M16.98,31.89H6.97c-1.46,0-2.64-1.18-2.64-2.64s1.18-2.64,2.64-2.64h10.01
		c1.46,0,2.64,1.18,2.64,2.64S18.44,31.89,16.98,31.89z"/>
	<path id="Path_156" class="st56" d="M27,43.03H6.97c-1.46,0-2.64-1.18-2.64-2.64s1.18-2.64,2.64-2.64H27c1.46,0,2.64,1.18,2.64,2.64
		S28.45,43.03,27,43.03L27,43.03z"/>
</g>
<path id="Path_157" class="st57" d="M104.75,6.65h-9.03c-0.85,0-1.54,0.69-1.54,1.54c-0.01,2.05-1.66,3.71-3.71,3.71H58.29
	c-2.05-0.01-3.71-1.67-3.71-3.71c0-0.85-0.69-1.54-1.54-1.54h-9.03c-2.49,0-4.5,2.01-4.5,4.5v57.53h69.75V11.15
	C109.26,8.67,107.24,6.65,104.75,6.65L104.75,6.65z"/>
<path id="Path_158" class="st56" d="M54.69,9.08c-0.07-0.29-0.11-0.59-0.11-0.89c0-0.85-0.69-1.54-1.54-1.54l0,0h-9.03
	c-2.49,0-4.5,2.01-4.5,4.5v57.53h15.18L54.69,9.08z"/>
<path id="Path_159" class="st58" d="M104.75,6.65h-9.03c-0.85,0-1.54,0.69-1.54,1.54c-0.01,2.05-1.66,3.71-3.71,3.71H72.72
	l36.53,45.79V11.15C109.25,8.67,107.24,6.65,104.75,6.65L104.75,6.65z"/>
<path id="Path_160" class="st53" d="M63.04,27.62H50.87c-1.46,0-2.64-1.18-2.64-2.64c0-1.46,1.18-2.64,2.64-2.64h12.16
	c1.46,0,2.64,1.18,2.64,2.64C65.68,26.44,64.5,27.62,63.04,27.62z"/>
<path id="Path_161" class="st52" d="M45.77,85.29c-2.72,2.93-7.3,3.11-10.24,0.39L23.4,74.44c-2.96-2.69-3.19-7.27-0.5-10.23
	c2.69-2.96,7.27-3.19,10.23-0.5c0.04,0.04,0.08,0.07,0.12,0.11l12.13,11.24C48.31,77.77,48.49,82.35,45.77,85.29
	C45.77,85.29,45.77,85.29,45.77,85.29z"/>
<path id="Path_162" class="st59" d="M45.38,75.05l-5.77-5.35c1.27,4.52-1.37,9.21-5.89,10.48c-1.29,0.36-2.64,0.41-3.96,0.15
	l5.77,5.35c2.9,2.75,7.49,2.63,10.24-0.28c2.75-2.9,2.63-7.49-0.28-10.24C45.45,75.13,45.41,75.09,45.38,75.05L45.38,75.05z"/>
<path id="Path_163" class="st52" d="M45.77,105.05c-2.72,2.93-7.3,3.11-10.24,0.39L23.4,94.19c-2.95-2.7-3.16-7.28-0.46-10.23
	c2.7-2.95,7.28-3.16,10.23-0.46c0.02,0.02,0.05,0.04,0.07,0.07l12.13,11.24C48.31,97.53,48.49,102.11,45.77,105.05z"/>
<path id="Path_164" class="st52" d="M45.77,124.8c-2.72,2.93-7.3,3.11-10.24,0.39L23.4,113.95c-2.96-2.69-3.19-7.27-0.5-10.23
	s7.27-3.19,10.23-0.5c0.04,0.04,0.08,0.07,0.12,0.11l12.13,11.24C48.31,117.29,48.49,121.87,45.77,124.8z"/>
<path id="Path_165" class="st59" d="M139.82,141.57c-0.37-1.38-0.63-2.79-0.76-4.21C125.8,159.17,99.8,169.7,75.1,163.27
	c2.74,1.76,5.64,3.28,8.65,4.53l0.18,0.07c5.6,2.37,10.04,6.85,12.36,12.47c17.9-1.18,34.98-7.93,48.83-19.32L139.82,141.57z"/>
<path id="Path_166" class="st59" d="M45.38,94.81l-5.77-5.35c1.27,4.52-1.37,9.21-5.89,10.48c-1.29,0.36-2.64,0.41-3.96,0.15
	l5.77,5.35c2.92,2.74,7.5,2.6,10.24-0.32c2.74-2.92,2.6-7.5-0.32-10.24C45.42,94.86,45.4,94.84,45.38,94.81L45.38,94.81z"/>
<path id="Path_167" class="st59" d="M45.38,114.57l-5.77-5.35c1.27,4.52-1.37,9.21-5.89,10.48c-1.29,0.36-2.64,0.41-3.96,0.15
	l5.77,5.35c2.96,2.69,7.55,2.46,10.23-0.5C48.41,121.77,48.23,117.28,45.38,114.57L45.38,114.57z"/>
</svg>
