<?xml version="1.0" encoding="utf-8"?>
<!-- Generator: Adobe Illustrator 24.0.2, SVG Export Plug-In . SVG Version: 6.00 Build 0)  -->
<svg version="1.1" id="Lag_1" xmlns="http://www.w3.org/2000/svg" xmlns:xlink="http://www.w3.org/1999/xlink" x="0px" y="0px"
	 viewBox="0 0 181 181" style="enable-background:new 0 0 181 181;" xml:space="preserve">
<style type="text/css">
	.st12{fill:#535D71;}
	.st13{fill:#CA9D62;}
	.st14{fill:#FFDB6A;}
	.st15{fill:#AA8F3D;}
	.st16{fill:#C9AB4E;}
	.st17{fill:#FDE5BD;}
	.st18{fill:#FFF5F5;}
</style>
<path id="Path_89" class="st12" d="M180.54,90.5c0,49.73-40.31,90.04-90.04,90.04S0.46,140.23,0.46,90.5
	c0-49.73,40.31-90.04,90.04-90.04c0,0,0,0,0,0C140.23,0.46,180.54,40.77,180.54,90.5C180.54,90.5,180.54,90.5,180.54,90.5z"/>
<path id="Path_90" class="st13" d="M172.35,43.25c-4.3-7.44-16.72-8.76-35.94-3.79c-7.11,1.88-14.1,4.19-20.94,6.92
	c-0.97-5.23-2.22-10.4-3.74-15.49C106.39,13.37,99.05,4.12,90.5,4.12S74.6,13.37,69.27,30.88c-3.66,12.01-6.08,26.95-7.07,43.18
	c-15.51,10-29,20.63-38.87,30.67c-13.9,14.16-18.98,25.58-14.69,33.02c2.59,4.49,8.13,6.75,16.34,6.75
	c6.63-0.17,13.21-1.17,19.6-2.95c7.11-1.88,14.1-4.19,20.94-6.91c0.97,5.23,2.22,10.4,3.74,15.49
	c5.33,17.51,12.68,26.76,21.23,26.76s15.89-9.25,21.23-26.76c3.66-12.01,6.09-26.96,7.06-43.18c15.51-10.01,29-20.63,38.87-30.67
	C171.57,62.11,176.65,50.69,172.35,43.25L172.35,43.25z M76,32.93c4.9-16.06,10.7-21.78,14.5-21.78s9.6,5.72,14.5,21.78
	c1.59,5.31,2.87,10.71,3.82,16.17c-11.22,4.84-22.15,10.34-32.72,16.47c-2.21,1.27-4.38,2.56-6.53,3.87
	C70.69,55.73,72.87,43.18,76,32.93z M112.25,90.5c0,4.21-0.1,8.37-0.29,12.45c-3.44,2.16-6.97,4.29-10.59,6.38
	c-9.82,5.69-19.95,10.83-30.35,15.39c-1.55-11.35-2.31-22.78-2.28-34.24c0-4.21,0.1-8.37,0.29-12.45c3.44-2.16,6.97-4.29,10.59-6.38
	c9.82-5.69,19.95-10.84,30.35-15.4C111.52,67.61,112.28,79.05,112.25,90.5L112.25,90.5z M42.83,134.73
	c-17.86,4.61-26.29,2.61-28.09-0.5s0.69-11.41,13.61-24.57c8.62-8.78,20.17-18.04,33.47-26.94c-0.07,2.57-0.11,5.16-0.11,7.78
	c-0.04,12.39,0.84,24.77,2.61,37.04C57.33,130.38,50.14,132.79,42.83,134.73z M105,148.07c-4.9,16.06-10.7,21.78-14.5,21.78
	s-9.6-5.72-14.5-21.78c-1.59-5.31-2.87-10.71-3.82-16.17c11.22-4.84,22.15-10.34,32.72-16.47c2.21-1.27,4.38-2.56,6.53-3.87
	C110.32,125.27,108.13,137.81,105,148.07L105,148.07z M152.64,71.34c-8.62,8.78-20.17,18.04-33.47,26.94
	c0.07-2.57,0.11-5.16,0.11-7.78c0.04-12.39-0.84-24.77-2.61-37.04c7.01-2.85,14.19-5.26,21.5-7.2c5.81-1.64,11.79-2.55,17.82-2.72
	c5.98,0,9.23,1.42,10.26,3.22C168.06,49.87,165.57,58.18,152.64,71.34L152.64,71.34z"/>
<path id="Path_91" class="st14" d="M144.29,82.08l-8.65-2.6c-2.62-0.79-4.75-2.71-5.79-5.23c-0.01-0.03-0.02-0.05-0.03-0.08
	c-1.05-2.53-0.91-5.4,0.39-7.81l4.28-7.96c1.25-2.31,0.83-5.17-1.03-7.03l-3.84-3.84c-1.86-1.86-4.72-2.28-7.03-1.03l-7.96,4.28
	c-2.41,1.3-5.28,1.44-7.81,0.39l-0.08-0.03c-2.53-1.05-4.45-3.17-5.23-5.79l-2.6-8.65c-0.76-2.52-3.07-4.24-5.7-4.24h-5.43
	c-2.63,0-4.95,1.72-5.7,4.24l-2.6,8.65c-0.78,2.62-2.71,4.75-5.23,5.79l-0.08,0.03c-2.53,1.05-5.4,0.91-7.81-0.39l-7.95-4.28
	c-2.31-1.25-5.17-0.83-7.03,1.03l-3.84,3.84c-1.86,1.86-2.28,4.72-1.03,7.03l4.28,7.96c1.3,2.41,1.44,5.28,0.39,7.81l-0.03,0.08
	c-1.04,2.53-3.17,4.45-5.79,5.23l-8.65,2.6c-2.52,0.76-4.24,3.07-4.24,5.7v5.43c0,2.63,1.72,4.94,4.24,5.7l8.65,2.6
	c2.62,0.79,4.75,2.71,5.79,5.23c0.01,0.03,0.02,0.05,0.03,0.08c1.05,2.53,0.91,5.4-0.39,7.81l-4.28,7.96
	c-1.25,2.31-0.83,5.17,1.03,7.03l3.84,3.84c1.86,1.86,4.72,2.28,7.03,1.03l7.95-4.28c2.41-1.3,5.28-1.44,7.81-0.39l0.08,0.03
	c2.53,1.05,4.45,3.17,5.23,5.79l2.6,8.65c0.76,2.52,3.07,4.24,5.7,4.24h5.43c2.63,0,4.94-1.72,5.7-4.24l2.6-8.65
	c0.79-2.62,2.71-4.75,5.23-5.79l0.08-0.03c2.53-1.05,5.4-0.91,7.81,0.39l7.96,4.28c2.31,1.25,5.17,0.83,7.03-1.03l3.84-3.84
	c1.86-1.86,2.28-4.72,1.03-7.03l-4.28-7.96c-1.3-2.41-1.44-5.28-0.39-7.81l0.03-0.08c1.05-2.53,3.17-4.45,5.79-5.23l8.65-2.6
	c2.52-0.75,4.24-3.07,4.24-5.7v-5.43C148.53,85.16,146.81,82.84,144.29,82.08z M90.5,102.71c-6.74,0-12.21-5.47-12.21-12.21
	s5.47-12.21,12.21-12.21c6.74,0,12.21,5.47,12.21,12.21l0,0C102.71,97.24,97.25,102.71,90.5,102.71
	C90.5,102.71,90.5,102.71,90.5,102.71z"/>
<path id="Path_92" class="st15" d="M90.5,64.47c-14.38,0-26.03,11.66-26.03,26.04c0,14.38,11.66,26.03,26.04,26.03
	c14.38,0,26.03-11.66,26.03-26.03C116.54,76.12,104.88,64.46,90.5,64.47z M90.5,102.71c-6.74,0-12.21-5.47-12.21-12.21
	s5.47-12.21,12.21-12.21c6.74,0,12.21,5.47,12.21,12.21l0,0C102.71,97.24,97.25,102.71,90.5,102.71
	C90.5,102.71,90.5,102.71,90.5,102.71z"/>
<path id="Path_93" class="st16" d="M95.11,64.87c-14.15,2.55-23.56,16.09-21.02,30.24c1.93,10.71,10.31,19.09,21.02,21.02
	c14.15-2.55,23.56-16.09,21.02-30.24C114.2,75.18,105.82,66.8,95.11,64.87z M90.5,102.71c-6.74,0-12.21-5.47-12.21-12.21
	s5.47-12.21,12.21-12.21c6.74,0,12.21,5.47,12.21,12.21l0,0C102.71,97.24,97.25,102.71,90.5,102.71
	C90.5,102.71,90.5,102.71,90.5,102.71z"/>
<path id="Path_94" class="st13" d="M172.35,137.75c-2.59,4.49-8.13,6.75-16.34,6.75c-6.63-0.17-13.21-1.16-19.6-2.95
	c-17.57-4.54-38.98-13.81-60.3-26.12S36.05,89.21,23.34,76.27C9.44,62.11,4.36,50.69,8.65,43.25s16.72-8.76,35.94-3.79
	c10.58,2.86,20.9,6.56,30.88,11.09c-0.39,0.24-0.8,0.44-1.22,0.62c-0.03,0.01-0.05,0.02-0.08,0.03c-2.53,1.05-5.4,0.91-7.81-0.39
	l-7.96-4.28c-2.31-1.25-5.17-0.83-7.03,1.03l-0.92,0.92c-2.62-0.83-5.17-1.57-7.63-2.2c-5.81-1.64-11.79-2.55-17.82-2.72
	c-5.98,0-9.23,1.43-10.26,3.22c-1.8,3.11,0.69,11.42,13.61,24.57c12.28,12.5,30.49,26,51.27,38s41.57,21.02,58.54,25.4
	c17.86,4.61,26.29,2.61,28.09-0.5s-0.69-11.42-13.61-24.57c-3.22-3.28-6.86-6.63-10.84-10l2.48-0.74c1.64-0.49,2.99-1.67,3.7-3.22
	c3.51,3.04,6.76,6.07,9.68,9.04C171.56,118.9,176.65,130.32,172.35,137.75L172.35,137.75z"/>
<path id="Path_95" class="st17" d="M102.46,118.28c0,6.8-5.51,12.31-12.31,12.31s-12.31-5.51-12.31-12.31
	c0-6.8,5.51-12.31,12.31-12.31c0,0,0,0,0,0C96.95,105.98,102.46,111.49,102.46,118.28z"/>
<path id="Path_96" class="st18" d="M93.67,123.56c-4.86,0-8.79-3.94-8.79-8.79c0-4.24,3.02-7.87,7.19-8.64
	c5.28,0.83,9.42,4.97,10.25,10.25C101.54,120.54,97.9,123.56,93.67,123.56z"/>
</svg>
