<?xml version="1.0" encoding="utf-8"?>
<!-- Generator: Adobe Illustrator 24.0.2, SVG Export Plug-In . SVG Version: 6.00 Build 0)  -->
<svg version="1.1" id="Lag_1" xmlns="http://www.w3.org/2000/svg" xmlns:xlink="http://www.w3.org/1999/xlink" x="0px" y="0px"
	 viewBox="0 0 181 181" style="enable-background:new 0 0 181 181;" xml:space="preserve">
<style type="text/css">
	.st60{fill:#A3A8B2;}
	.st61{fill:#2F323E;}
	.st62{fill:#E6F7FE;}
	.st63{fill:#D5F1FE;}
	.st64{fill:#535D71;}
	.st65{fill:#AEAEFF;}
	.st66{fill:#8181FC;}
	.st67{fill:#C9AB4E;}
	.st68{fill:#AA8F3D;}
	.st69{fill:#FFDB6A;}
</style>
<path id="Path_168" class="st60" d="M86.63,4.33c-17.1-0.03-33.83,5.06-48.02,14.61L28.53,154.13
	c35.14,32.09,89.65,29.61,121.73-5.53s29.61-89.65-5.53-121.73C128.86,12.37,108.13,4.33,86.63,4.33L86.63,4.33z"/>
<path id="Path_169" class="st61" d="M154.23,18.7H38.99c-10.62,7.06-19.55,16.38-26.15,27.29l6.42,98.22
	c2.92,3.66,6.13,7.08,9.6,10.22h87.19V66.86c0-4.38,3.55-7.93,7.93-7.93h41.55V30C165.53,23.76,160.48,18.71,154.23,18.7
	L154.23,18.7z"/>
<path id="Path_170" class="st62" d="M1.21,100.22l-0.11,0.7c1.91,15.84,8.2,30.84,18.17,43.3h96.79v-44H1.21z"/>
<path id="Path_171" class="st63" d="M1.21,100.22l-0.11,0.7c1.91,15.84,8.2,30.84,18.17,43.3h7.11v-44H1.21z"/>
<path id="Path_172" class="st64" d="M155.33,45.99V30c-0.01-0.6-0.49-1.08-1.09-1.09H26.38c-5.21,5.1-9.76,10.84-13.54,17.08H155.33z
	"/>
<path id="Path_173" class="st61" d="M26.37,45.99V28.92c-5.21,5.1-9.76,10.83-13.53,17.07L26.37,45.99z"/>
<path id="Path_174" class="st64" d="M66.53,122.56c0,6.17-5,11.17-11.17,11.17c-6.17,0-11.17-5-11.17-11.17
	c0-6.17,5-11.17,11.17-11.17S66.53,116.4,66.53,122.56L66.53,122.56z"/>
<path id="Path_175" class="st64" d="M29.95,122.56c0,6.17-5,11.17-11.17,11.17c-6.17,0-11.17-5-11.17-11.17
	c0-6.17,5-11.17,11.17-11.17c0,0,0,0,0,0C24.95,111.4,29.95,116.4,29.95,122.56z"/>
<path id="Path_176" class="st64" d="M103.12,122.56c0,6.17-5,11.17-11.17,11.17c-6.17,0-11.17-5-11.17-11.17
	c0-6.17,5-11.17,11.17-11.17S103.12,116.4,103.12,122.56L103.12,122.56z"/>
<path id="Path_177" class="st61" d="M63.11,129.77c-6.17,0-11.16-4.99-11.17-11.16c0-2.63,0.93-5.17,2.61-7.18
	c-6.15,0.45-10.77,5.8-10.32,11.95c0.45,6.15,5.8,10.77,11.95,10.32c3.01-0.22,5.8-1.65,7.74-3.96
	C63.65,129.76,63.38,129.77,63.11,129.77L63.11,129.77z"/>
<path id="Path_178" class="st61" d="M26.52,129.77c-6.17,0-11.17-5-11.17-11.16c0-2.63,0.92-5.17,2.61-7.18
	c-6.15,0.45-10.77,5.8-10.32,11.95c0.45,6.15,5.8,10.77,11.95,10.32c3.01-0.22,5.8-1.65,7.73-3.96
	C27.07,129.76,26.8,129.77,26.52,129.77L26.52,129.77z"/>
<path id="Path_179" class="st61" d="M99.69,129.77c-6.17,0-11.17-4.99-11.17-11.16c0-2.63,0.93-5.18,2.62-7.19
	c-6.15,0.45-10.77,5.8-10.32,11.95c0.45,6.15,5.8,10.77,11.95,10.32c3.01-0.22,5.8-1.65,7.74-3.96
	C100.24,129.76,99.97,129.77,99.69,129.77z"/>
<path id="Path_180" class="st65" d="M145.16,40.09h-18.52c-1.46,0-2.64-1.18-2.64-2.64s1.18-2.64,2.64-2.64h18.52
	c1.46,0,2.64,1.18,2.64,2.64S146.62,40.09,145.16,40.09L145.16,40.09L145.16,40.09z"/>
<path id="Path_181" class="st65" d="M113.39,40.09H32.41c-1.46,0-2.64-1.18-2.64-2.64s1.18-2.64,2.64-2.64h80.98
	c1.46,0,2.64,1.18,2.64,2.64S114.84,40.09,113.39,40.09z"/>
<path id="Path_182" class="st66" d="M100.5,37.45c0-1.46,1.18-2.64,2.64-2.64c0,0,0,0,0.01,0H32.41c-1.46,0-2.64,1.18-2.64,2.64
	s1.18,2.64,2.64,2.64h70.74C101.69,40.09,100.51,38.91,100.5,37.45C100.5,37.45,100.5,37.45,100.5,37.45z"/>
<path id="Path_183" class="st66" d="M20.55,65.93h-9.63c-1.46,0-2.64-1.18-2.64-2.64s1.18-2.64,2.64-2.64h9.63
	c1.46,0,2.64,1.18,2.64,2.64S22.01,65.93,20.55,65.93z"/>
<path id="Path_184" class="st63" d="M8.24,54.69h147.09v-8.7H12.84C11.14,48.8,9.61,51.7,8.24,54.69z"/>
<path id="Path_185" class="st60" d="M26.37,45.99H12.84c-1.7,2.81-3.23,5.71-4.6,8.7h18.13V45.99z"/>
<path id="Path_186" class="st60" d="M25.37,54.69c0-4.8-3.9-8.7-8.7-8.7h-3.82c-1.7,2.81-3.23,5.71-4.6,8.7H25.37z"/>
<path id="Path_187" class="st67" d="M155.33,54.69H8.24C3.1,65.93,0.45,78.14,0.47,90.5c0,3.48,0.21,6.96,0.63,10.42h114.96V66.86
	c0-4.38,3.55-7.93,7.93-7.93h31.34L155.33,54.69z"/>
<path id="Path_188" class="st68" d="M26.37,54.69H8.24C3.1,65.93,0.45,78.14,0.47,90.5c0,3.48,0.21,6.96,0.63,10.42h25.28V54.69z"/>
<path id="Path_189" class="st69" d="M93.59,100.92h22.46V66.86c0-4.38,3.55-7.93,7.93-7.93h31.34v-4.23H56.71L93.59,100.92z"/>
<path id="Path_190" class="st61" d="M172.08,58.4h-48.09c-4.67,0.01-8.46,3.79-8.46,8.46v101.35c0.01,4.67,3.79,8.46,8.46,8.46h48.09
	c4.67,0,8.46-3.79,8.46-8.46V66.86C180.53,62.19,176.75,58.4,172.08,58.4z"/>
<path id="Path_191" class="st61" d="M134.1,171.23c0.65,0,1.28,0.21,1.8,0.6V68.15c-2.8-0.27-4.85-2.77-4.58-5.57
	c0.18-1.84,1.34-3.44,3.03-4.18h-10.37c-4.67,0.01-8.46,3.79-8.46,8.46v101.35c0.01,4.67,3.79,8.46,8.46,8.46h8.31
	c-1.34-0.99-1.61-2.88-0.62-4.22C132.24,171.68,133.14,171.23,134.1,171.23L134.1,171.23z"/>
<path id="Path_192" class="st62" d="M120.42,111.7v56.5c0,1.97,1.6,3.56,3.56,3.56h48.09c1.97,0,3.56-1.6,3.56-3.56v-56.5H120.42z"/>
<path id="Path_193" class="st63" d="M132.38,111.7h-11.95v56.5c0,1.97,1.6,3.56,3.56,3.56h8.39V111.7z"/>
<path id="Path_194" class="st64" d="M139.82,128.85c0,3.08-2.5,5.58-5.58,5.58c-3.08,0-5.58-2.5-5.58-5.58c0-3.08,2.5-5.58,5.58-5.58
	C137.32,123.27,139.82,125.77,139.82,128.85z"/>
<path id="Path_195" class="st64" d="M139.82,149.55c0,3.08-2.5,5.58-5.58,5.58c-3.08,0-5.58-2.5-5.58-5.58c0-3.08,2.5-5.58,5.58-5.58
	C137.32,143.97,139.82,146.47,139.82,149.55z"/>
<path id="Path_196" class="st61" d="M133.85,123.29c-3.07,0.21-5.4,2.88-5.18,5.95c0.21,3.07,2.88,5.4,5.95,5.18
	c1.76-0.12,3.36-1.07,4.31-2.56c-3.07,0.21-5.74-2.1-5.95-5.18C132.9,125.49,133.2,124.3,133.85,123.29z"/>
<path id="Path_197" class="st61" d="M133.85,143.99c-3.07,0.21-5.39,2.88-5.18,5.95s2.88,5.39,5.95,5.18
	c1.76-0.12,3.36-1.07,4.31-2.56c-3.07,0.21-5.74-2.11-5.95-5.18C132.9,146.19,133.2,145,133.85,143.99z"/>
<path id="Path_198" class="st67" d="M172.08,63.3h-7.15c-0.67,0-1.22,0.55-1.22,1.22l0,0c0,1.62-1.32,2.94-2.94,2.94h-25.48
	c-1.62,0-2.93-1.32-2.94-2.94c0-0.67-0.55-1.22-1.22-1.22h-7.15c-1.97,0-3.56,1.6-3.56,3.56v45.55h55.22V66.86
	C175.64,64.89,174.04,63.3,172.08,63.3L172.08,63.3z"/>
<path id="Path_199" class="st68" d="M132.38,64.87c-0.01-0.12-0.02-0.24-0.02-0.36c0-0.67-0.55-1.22-1.22-1.22l0,0h-7.15
	c-1.97,0-3.56,1.6-3.56,3.56v45.55h11.95L132.38,64.87z"/>
<path id="Path_200" class="st69" d="M172.08,63.3h-7.15c-0.67,0-1.22,0.55-1.22,1.22l0,0c0,1.62-1.32,2.94-2.94,2.94h-14.05
	l28.92,36.25V66.86C175.64,64.89,174.04,63.3,172.08,63.3L172.08,63.3z"/>
<g id="Group_9" transform="translate(146.022 117.47)">
	<path id="Path_201" class="st68" d="M11.03,9.61H3.1c-1.46,0-2.64-1.18-2.64-2.64S1.65,4.33,3.1,4.33h7.93
		c1.46,0,2.64,1.18,2.64,2.64S12.49,9.61,11.03,9.61L11.03,9.61z"/>
	<path id="Path_202" class="st68" d="M18.96,18.43H3.1c-1.46,0-2.64-1.18-2.64-2.64s1.18-2.64,2.64-2.64h15.85
		c1.46,0,2.64,1.18,2.64,2.64S20.41,18.43,18.96,18.43z"/>
	<path id="Path_203" class="st68" d="M11.03,30.31H3.1c-1.46,0-2.64-1.18-2.64-2.64s1.18-2.64,2.64-2.64h7.93
		c1.46,0,2.64,1.18,2.64,2.64S12.49,30.31,11.03,30.31L11.03,30.31z"/>
	<path id="Path_204" class="st68" d="M18.96,39.13H3.1c-1.46,0-2.64-1.18-2.64-2.64s1.18-2.64,2.64-2.64h15.85
		c1.46,0,2.64,1.18,2.64,2.64S20.41,39.13,18.96,39.13z"/>
</g>
<path id="Path_205" class="st61" d="M139.05,80.44h-9.63c-1.46,0-2.64-1.18-2.64-2.64s1.18-2.64,2.64-2.64h9.63
	c1.46,0,2.64,1.18,2.64,2.64S140.51,80.44,139.05,80.44L139.05,80.44z"/>
</svg>
